<svg width="464" height="210" viewBox="0 0 464 210" fill="none" xmlns="http://www.w3.org/2000/svg">
<path d="M104.845 29.8446C146.266 29.8446 179.845 63.4232 179.845 104.845C179.845 146.266 146.266 179.845 104.845 179.845C63.4232 179.845 29.8446 146.266 29.8446 104.845C29.8446 63.4232 63.4232 29.8446 104.845 29.8446ZM105.301 67.1503C84.6973 67.1503 67.995 83.8526 67.995 104.456C67.995 125.059 84.6973 141.762 105.301 141.762C124.325 141.762 140.022 127.521 142.316 109.119H104.368C101.793 109.119 99.705 107.031 99.705 104.456C99.705 101.881 101.793 99.7929 104.368 99.7928H142.316C140.021 81.3904 124.325 67.1503 105.301 67.1503ZM142.316 99.7928C142.507 101.321 142.606 102.877 142.606 104.456C142.606 106.035 142.507 107.591 142.316 109.119H151C153.575 109.119 155.663 107.031 155.663 104.456C155.663 101.881 153.575 99.7928 151 99.7928H142.316Z" fill="white"/>
<path d="M228.153 103.404H252.984V133.487H245.582V112.317C244.786 126.245 237.624 134.999 226.88 134.999C213.271 134.999 203.004 122.425 203.004 105.632C203.004 88.76 213.668 76.2651 228.153 76.2651C241.523 76.2651 249.8 83.2686 252.108 96.5594H243.354C241.523 88.1233 236.35 83.7461 228.153 83.7461C218.762 83.7461 211.758 93.1372 211.758 105.632C211.758 118.127 218.841 127.518 228.392 127.518C238.022 127.518 245.264 120.117 245.582 110.169H228.153V103.404ZM274.988 77.7772H290.269L307.937 133.487H298.784L294.009 118.207H271.328L266.552 133.487H257.32L274.988 77.7772ZM273.635 110.726H291.701L282.708 81.9952L273.635 110.726ZM312.954 133.487V77.7772H321.708V133.487H312.954ZM344.318 77.7772H359.598L377.266 133.487H368.114L363.339 118.207H340.657L335.882 133.487H326.65L344.318 77.7772ZM342.965 110.726H361.031L352.038 81.9952L342.965 110.726ZM382.283 77.7772H396.529L418.415 127.677V77.7772H427.09V133.487H412.924L391.038 83.587V133.487H382.283V77.7772Z" fill="white"/>
</svg>
