<?xml version="1.0" encoding="UTF-8"?>
<svg xmlns="http://www.w3.org/2000/svg" xmlns:xlink="http://www.w3.org/1999/xlink" version="1.1" viewBox="0 0 355 355" width="355" height="355">
  <!-- Generator: Adobe Illustrator 29.8.2, SVG Export Plug-In . SVG Version: 2.1.1 Build 3)  -->
  <defs>
    <style>
      .st0 {
        fill: none;
      }

      .st1 {
        fill: url(#radial-gradient3);
      }

      .st1, .st2 {
        mix-blend-mode: overlay;
        opacity: .3;
      }

      .st2 {
        fill: url(#radial-gradient1);
      }

      .st3 {
        fill: url(#linear-gradient2);
      }

      .st4 {
        fill: url(#linear-gradient1);
      }

      .st5 {
        fill: url(#radial-gradient);
      }

      .st6 {
        fill: url(#linear-gradient);
      }

      .st7 {
        isolation: isolate;
      }

      .st8 {
        clip-path: url(#clippath-1);
      }

      .st9 {
        fill: url(#radial-gradient2);
      }

      .st10 {
        clip-path: url(#clippath);
      }
    </style>
    <linearGradient id="linear-gradient" x1="77.56" y1="92.71" x2="60.9" y2="253.98" gradientTransform="translate(355 355) rotate(-180)" gradientUnits="userSpaceOnUse">
      <stop offset="0" stop-color="#29306f"/>
      <stop offset=".12" stop-color="#27387c"/>
      <stop offset=".33" stop-color="#234ea1"/>
      <stop offset=".69" stop-color="#5aa1d8"/>
      <stop offset=".99" stop-color="#89c3e6"/>
    </linearGradient>
    <linearGradient id="linear-gradient1" x1="77.56" y1="92.71" x2="60.9" y2="253.98" gradientTransform="matrix(1,0,0,1,0,0)" xlink:href="#linear-gradient"/>
    <linearGradient id="linear-gradient2" x1="177.5" y1="147.32" x2="177.5" y2="209.67" gradientUnits="userSpaceOnUse">
      <stop offset=".15" stop-color="#9cdbf8"/>
      <stop offset=".21" stop-color="#95d4f3"/>
      <stop offset=".29" stop-color="#81c3e6"/>
      <stop offset=".39" stop-color="#62a6d1"/>
      <stop offset=".49" stop-color="#3b83b7"/>
      <stop offset=".75" stop-color="#1a3b81"/>
      <stop offset="1" stop-color="#241f5d"/>
    </linearGradient>
    <radialGradient id="radial-gradient" cx="290.43" cy="137.1" fx="290.43" fy="137.1" r="231.35" gradientTransform="translate(355 355) rotate(-180)" gradientUnits="userSpaceOnUse">
      <stop offset="0" stop-color="#241f5d"/>
      <stop offset=".22" stop-color="#1a3b81"/>
      <stop offset=".52" stop-color="#2992d0"/>
      <stop offset=".8" stop-color="#7ed2f6"/>
      <stop offset="1" stop-color="#c6e9fa"/>
    </radialGradient>
    <clipPath id="clippath">
      <path class="st0" d="M88.27,278.16c4.78,4.25,9.87,8.17,15.22,11.71,4.24,2.81,8.65,5.38,13.2,7.7,10.63,5.41,22.09,9.45,34.12,11.88,8.65,1.75,17.6,2.67,26.77,2.67,3.91,0,7.79-.17,11.62-.49,10.33-.88,20.32-2.94,29.85-6.02,20.05-6.49,38.03-17.57,52.71-31.99,5.41-5.32,10.38-11.08,14.83-17.25,3.37-4.67,6.45-9.56,9.21-14.64,3.73-6.87,6.88-14.1,9.38-21.63,1.82-5.47,3.29-11.09,4.4-16.85-2.52,5.69-6.42,13.5-12.22,22.12-6.84,10.17-17.16,25.18-35.86,36.43-8.28,4.98-20.88,12.56-38.64,12.92-21.81.44-38.18-10.25-42.69-13.2-4.14-2.7-3.35-2.41-15.61-12.31-9.41-7.6-18.15-14.08-26.34-19.45-20.46-13.41-37.5-19.84-52.93-19.2-2,.08-3.97.29-5.92.61-10.03,1.65-15.59,5.6-18.5,10.25-4.71,7.55-2.43,16.98-.85,21.51,1.56,2.8,3.21,5.54,4.96,8.22,2.41,3.68,4.99,7.24,7.74,10.66,2.03,2.53,4.16,4.99,6.37,7.37,2.92,3.14,5.98,6.14,9.19,8.99Z"/>
    </clipPath>
    <radialGradient id="radial-gradient1" cx="268.13" cy="143.41" fx="268.13" fy="143.41" r="31.42" gradientTransform="translate(-.11 568.43) rotate(-90) scale(1.31 .7)" gradientUnits="userSpaceOnUse">
      <stop offset="0" stop-color="#fff"/>
      <stop offset="1" stop-color="#fff" stop-opacity="0"/>
    </radialGradient>
    <radialGradient id="radial-gradient2" cx="290.43" cy="137.1" fx="290.43" fy="137.1" r="231.35" gradientUnits="userSpaceOnUse">
      <stop offset="0" stop-color="#241f5d"/>
      <stop offset=".22" stop-color="#1a3b81"/>
      <stop offset=".52" stop-color="#2992d0"/>
      <stop offset=".8" stop-color="#7ed2f6"/>
      <stop offset="1" stop-color="#c6e9fa"/>
    </radialGradient>
    <clipPath id="clippath-1">
      <path class="st0" d="M266.73,76.84c-4.78-4.25-9.87-8.17-15.22-11.71-4.24-2.81-8.65-5.38-13.2-7.7-10.63-5.41-22.09-9.45-34.12-11.88-8.65-1.75-17.6-2.67-26.77-2.67-3.91,0-7.79.17-11.62.49-10.33.88-20.32,2.94-29.85,6.02-20.05,6.49-38.03,17.57-52.71,31.99-5.41,5.32-10.38,11.08-14.83,17.25-3.37,4.67-6.45,9.56-9.21,14.64-3.73,6.87-6.88,14.1-9.38,21.63-1.82,5.47-3.29,11.09-4.4,16.85,2.52-5.69,6.42-13.5,12.22-22.12,6.84-10.17,17.16-25.18,35.86-36.43,8.28-4.98,20.88-12.56,38.64-12.92,21.81-.44,38.18,10.25,42.69,13.2,4.14,2.7,3.35,2.41,15.61,12.31,9.41,7.6,18.15,14.08,26.34,19.45,20.46,13.41,37.5,19.84,52.93,19.2,2-.08,3.97-.29,5.92-.61,10.03-1.65,15.59-5.6,18.5-10.25,4.71-7.55,2.43-16.98.85-21.51-1.56-2.8-3.21-5.54-4.96-8.22-2.41-3.68-4.99-7.24-7.74-10.66-2.03-2.53-4.16-4.99-6.37-7.37-2.92-3.14-5.98-6.14-9.19-8.99Z"/>
    </clipPath>
    <radialGradient id="radial-gradient3" cx="268.13" cy="143.41" fx="268.13" fy="143.41" r="31.42" gradientTransform="translate(355.11 -213.43) rotate(90) scale(1.31 .7)" xlink:href="#radial-gradient1"/>
  </defs>
  <g class="st7">
    <g id="Logo">
      <g>
        <path class="st6" d="M285.21,97.13s42.26,52.39,20.55,120.81c0,0-30.19,51.75-55.62,51.75,0,0,95.92-52.58,35.07-172.56Z"/>
        <path class="st4" d="M69.79,257.87s-42.26-52.39-20.55-120.81c0,0,30.19-51.75,55.62-51.75,0,0-95.92,52.58-35.07,172.56Z"/>
        <path class="st3" d="M128.63,159.96v43.51h-5.12v-13.98c-.82,1.84-2.61,4.25-6.25,4.25-4.71,0-6.35-3.17-6.35-10.39v-13.52c0-7.22,1.64-10.39,6.35-10.39,3.63,0,5.43,2.41,6.25,4.25v-3.74h5.12ZM123.51,169.33c0-2.97-1.18-5.27-3.99-5.27-2.56,0-3.48,1.79-3.48,5.02v15.05c0,3.22.92,5.02,3.48,5.02,2.82,0,3.99-2.3,3.99-5.27v-14.54ZM149.42,193.24h-4.61c-.77-.77-1.02-2.82-1.02-3.74-.82,1.84-2.61,4.25-6.25,4.25-4.71,0-6.35-3.17-6.35-10.39v-23.4h5.12v24.16c0,3.22.92,5.02,3.48,5.02,2.82,0,3.99-2.3,3.99-5.27v-23.91h5.12v28.36c0,2.15,0,3.28.51,4.92ZM169.94,193.24h-4.61c-.77-1.02-1.02-2.82-1.02-3.74-1.23,2.87-3.28,4.25-6.35,4.25-3.84,0-6.76-2.71-6.76-8.4,0-11.57,13.11-10.65,13.11-17.1,0-2.92-1.18-4.2-3.43-4.2-2.46,0-3.74,1.54-3.74,5.27v1.28h-5.12v-.77c0-6.19,2.1-10.39,8.86-10.39s8.55,4.2,8.55,9.88v19.04c0,1.79,0,2.87.51,4.86ZM164.31,174.81c-1.33,2.87-7.99,4.25-7.99,9.83,0,2.61,1.08,4.5,3.69,4.5s4.04-2.76,4.3-3.74v-10.6ZM188.42,159.96l-5.58,33.28h-6.81l-5.58-33.28h5.12l3.89,27.29,3.84-27.29h5.12ZM206.9,193.24h-4.61c-.77-1.02-1.02-2.82-1.02-3.74-1.23,2.87-3.28,4.25-6.35,4.25-3.84,0-6.76-2.71-6.76-8.4,0-11.57,13.11-10.65,13.11-17.1,0-2.92-1.18-4.2-3.43-4.2-2.46,0-3.74,1.54-3.74,5.27v1.28h-5.12v-.77c0-6.19,2.1-10.39,8.86-10.39s8.55,4.2,8.55,9.88v19.04c0,1.79,0,2.87.51,4.86ZM201.27,174.81c-1.33,2.87-7.99,4.25-7.99,9.83,0,2.61,1.08,4.5,3.69,4.5s4.04-2.76,4.3-3.74v-10.6ZM227.17,169.84v23.4h-5.12v-24.16c0-3.23-.92-5.02-3.48-5.02-2.82,0-3.99,2.3-3.99,5.27v23.91h-5.12v-33.28h5.12v3.74c.82-1.84,2.61-4.25,6.25-4.25,4.71,0,6.35,3.17,6.35,10.39ZM242.32,170.61c0-5.27-1.23-6.55-3.63-6.55s-3.84,1.28-3.84,6.55v11.98c0,5.27,1.38,6.55,3.84,6.55s3.63-1.28,3.63-6.55v-2.41h5.12v1.64c0,8.24-2.56,11.93-8.75,11.93s-8.96-3.69-8.96-11.93v-10.44c0-8.24,2.76-11.93,8.96-11.93s8.75,3.69,8.75,11.93v1.64h-5.12v-2.41ZM267.45,171.38v5.99h-12.59v5.22c0,5.27,1.38,6.55,3.84,6.55s3.63-1.28,3.63-6.55v-2.41h5.12v1.64c0,8.24-2.56,11.93-8.75,11.93s-8.96-3.69-8.96-11.93v-10.44c0-8.24,2.76-11.93,8.96-11.93s8.75,3.69,8.75,11.93ZM258.7,164.06c-2.46,0-3.84,1.28-3.84,6.55v3.17h7.47v-3.17c0-5.27-1.23-6.55-3.63-6.55ZM102.51,182.99h-8.03l-1.28,10.25h-5.65l6.83-47.1h8.24l6.77,47.1h-5.59l-1.28-10.25ZM101.87,177.87l-3.37-26.91-3.37,26.91h6.75Z"/>
        <path class="st5" d="M88.27,278.16c4.78,4.25,9.87,8.17,15.22,11.71,4.24,2.81,8.65,5.38,13.2,7.7,10.63,5.41,22.09,9.45,34.12,11.88,8.65,1.75,17.6,2.67,26.77,2.67,3.91,0,7.79-.17,11.62-.49,10.33-.88,20.32-2.94,29.85-6.02,20.05-6.49,38.03-17.57,52.71-31.99,5.41-5.32,10.38-11.08,14.83-17.25,3.37-4.67,6.45-9.56,9.21-14.64,3.73-6.87,6.88-14.1,9.38-21.63,1.82-5.47,3.29-11.09,4.4-16.85-2.52,5.69-6.42,13.5-12.22,22.12-6.84,10.17-17.16,25.18-35.86,36.43-8.28,4.98-20.88,12.56-38.64,12.92-21.81.44-38.18-10.25-42.69-13.2-4.14-2.7-3.35-2.41-15.61-12.31-9.41-7.6-18.15-14.08-26.34-19.45-20.46-13.41-37.5-19.84-52.93-19.2-2,.08-3.97.29-5.92.61-10.03,1.65-15.59,5.6-18.5,10.25-4.71,7.55-2.43,16.98-.85,21.51,1.56,2.8,3.21,5.54,4.96,8.22,2.41,3.68,4.99,7.24,7.74,10.66,2.03,2.53,4.16,4.99,6.37,7.37,2.92,3.14,5.98,6.14,9.19,8.99Z"/>
        <g class="st10">
          <ellipse class="st2" cx="100.14" cy="217.8" rx="28.55" ry="53.41" transform="translate(-131.52 279.44) rotate(-80.21)"/>
        </g>
        <path class="st9" d="M266.73,76.84c-4.78-4.25-9.87-8.17-15.22-11.71-4.24-2.81-8.65-5.38-13.2-7.7-10.63-5.41-22.09-9.45-34.12-11.88-8.65-1.75-17.6-2.67-26.77-2.67-3.91,0-7.79.17-11.62.49-10.33.88-20.32,2.94-29.85,6.02-20.05,6.49-38.03,17.57-52.71,31.99-5.41,5.32-10.38,11.08-14.83,17.25-3.37,4.67-6.45,9.56-9.21,14.64-3.73,6.87-6.88,14.1-9.38,21.63-1.82,5.47-3.29,11.09-4.4,16.85,2.52-5.69,6.42-13.5,12.22-22.12,6.84-10.17,17.16-25.18,35.86-36.43,8.28-4.98,20.88-12.56,38.64-12.92,21.81-.44,38.18,10.25,42.69,13.2,4.14,2.7,3.35,2.41,15.61,12.31,9.41,7.6,18.15,14.08,26.34,19.45,20.46,13.41,37.5,19.84,52.93,19.2,2-.08,3.97-.29,5.92-.61,10.03-1.65,15.59-5.6,18.5-10.25,4.71-7.55,2.43-16.98.85-21.51-1.56-2.8-3.21-5.54-4.96-8.22-2.41-3.68-4.99-7.24-7.74-10.66-2.03-2.53-4.16-4.99-6.37-7.37-2.92-3.14-5.98-6.14-9.19-8.99Z"/>
        <g class="st8">
          <ellipse class="st1" cx="254.86" cy="137.2" rx="28.55" ry="53.41" transform="translate(76.31 365.01) rotate(-80.21)"/>
        </g>
      </g>
    </g>
  </g>
</svg>