<svg width="1176" height="247" viewBox="0 0 1176 247" fill="none" xmlns="http://www.w3.org/2000/svg">
<path d="M307.388 182V69.3887H361.795C369.809 69.3887 376.82 70.7067 382.831 73.3428C388.841 75.8733 393.48 79.4583 396.749 84.0977C400.017 88.7371 401.652 94.1146 401.652 100.23C401.652 105.713 400.123 110.563 397.065 114.781C394.007 118.999 390.106 121.898 385.361 123.48V125.061C391.055 126.643 395.694 129.806 399.279 134.551C402.97 139.296 404.815 144.832 404.815 151.158C404.815 157.379 403.128 162.809 399.754 167.449C396.38 172.088 391.582 175.673 385.361 178.204C379.14 180.734 371.917 182 363.693 182H307.388ZM357.208 115.572C362.375 115.572 366.593 114.359 369.861 111.934C373.13 109.509 374.764 106.346 374.764 102.444C374.764 98.5431 373.13 95.3799 369.861 92.9548C366.593 90.5296 362.375 89.317 357.208 89.317H333.642V115.572H357.208ZM358.316 162.071C364.009 162.071 368.702 160.753 372.392 158.117C376.082 155.376 377.928 151.896 377.928 147.679C377.928 143.566 376.082 140.192 372.392 137.556C368.702 134.815 364.009 133.444 358.316 133.444H333.642V162.071H358.316ZM426.752 89.7915C422.64 89.7915 419.266 88.5262 416.63 85.9957C413.994 83.3596 412.676 80.0383 412.676 76.0315C412.676 72.0248 413.994 68.7561 416.63 66.2255C419.266 63.5895 422.64 62.2715 426.752 62.2715C430.865 62.2715 434.239 63.5895 436.875 66.2255C439.511 68.7561 440.829 72.0248 440.829 76.0315C440.829 80.0383 439.511 83.3596 436.875 85.9957C434.239 88.5262 430.865 89.7915 426.752 89.7915ZM438.456 182H415.049V101.021H438.456V182ZM485.349 184.53C477.23 184.53 470.745 181.894 465.895 176.622C461.045 171.35 458.619 164.444 458.619 155.903V118.102H447.232V101.021H459.252L463.839 75.3989H482.185L482.027 101.021H500.532V118.102H482.027V154.954C482.027 158.433 482.976 161.228 484.874 163.336C486.878 165.34 489.514 166.342 492.782 166.342C495.207 166.342 498.002 165.973 501.165 165.234V182C498.951 182.738 496.367 183.318 493.415 183.739C490.463 184.266 487.774 184.53 485.349 184.53ZM549.356 184.53C540.815 184.53 533.223 182.738 526.581 179.153C519.938 175.568 514.718 170.506 510.923 163.969C507.232 157.432 505.387 149.946 505.387 141.51C505.387 132.97 507.232 125.483 510.923 119.051C514.613 112.514 519.78 107.453 526.422 103.868C533.065 100.283 540.71 98.4904 549.356 98.4904C556.631 98.4904 563.221 99.8084 569.126 102.444C575.136 104.975 580.039 108.613 583.835 113.358C587.631 118.102 589.95 123.638 590.794 129.964L568.968 132.811C567.913 128.383 565.541 124.798 561.851 122.056C558.266 119.21 554.206 117.786 549.672 117.786C543.662 117.786 538.654 120 534.647 124.429C530.745 128.857 528.795 134.551 528.795 141.51C528.795 148.469 530.745 154.163 534.647 158.592C538.548 163.02 543.504 165.234 549.514 165.234C554.153 165.234 558.266 163.864 561.851 161.122C565.436 158.275 567.808 154.69 568.968 150.367L590.952 153.056C590.003 159.382 587.578 164.918 583.677 169.663C579.881 174.408 574.978 178.098 568.968 180.734C563.063 183.265 556.526 184.53 549.356 184.53ZM642.399 184.53C633.437 184.53 625.581 182.79 618.833 179.311C612.085 175.726 606.813 170.717 603.017 164.285C599.326 157.748 597.481 150.156 597.481 141.51C597.481 132.864 599.326 125.325 603.017 118.893C606.813 112.356 612.085 107.347 618.833 103.868C625.581 100.283 633.437 98.4904 642.399 98.4904C651.256 98.4904 659.059 100.283 665.807 103.868C672.661 107.347 677.933 112.356 681.623 118.893C685.419 125.325 687.317 132.864 687.317 141.51C687.317 150.156 685.419 157.748 681.623 164.285C677.933 170.717 672.661 175.726 665.807 179.311C659.059 182.79 651.256 184.53 642.399 184.53ZM642.399 164.602C648.62 164.602 653.734 162.44 657.741 158.117C661.747 153.794 663.751 148.258 663.751 141.51C663.751 134.762 661.747 129.279 657.741 125.061C653.734 120.738 648.62 118.577 642.399 118.577C636.073 118.577 630.906 120.738 626.899 125.061C622.893 129.279 620.889 134.762 620.889 141.51C620.889 148.258 622.893 153.794 626.899 158.117C630.906 162.44 636.073 164.602 642.399 164.602ZM709.268 89.7915C705.156 89.7915 701.782 88.5262 699.146 85.9957C696.51 83.3596 695.192 80.0383 695.192 76.0315C695.192 72.0248 696.51 68.7561 699.146 66.2255C701.782 63.5895 705.156 62.2715 709.268 62.2715C713.38 62.2715 716.754 63.5895 719.39 66.2255C722.026 68.7561 723.344 72.0248 723.344 76.0315C723.344 80.0383 722.026 83.3596 719.39 85.9957C716.754 88.5262 713.38 89.7915 709.268 89.7915ZM720.972 182H697.564V101.021H720.972V182ZM734.967 182V101.021H758.374V112.409H759.956C765.966 103.235 773.822 98.6486 783.522 98.6486C789.532 98.6486 794.857 100.125 799.496 103.077C804.136 105.924 807.721 109.931 810.251 115.097C812.782 120.158 814.047 125.905 814.047 132.337V182H790.639V135.658C790.639 130.597 789.269 126.538 786.527 123.48C783.786 120.317 780.095 118.735 775.456 118.735C770.711 118.735 766.652 120.422 763.277 123.796C760.009 127.17 758.374 131.388 758.374 136.449V182H734.967ZM836.102 183.897C832.095 183.897 828.774 182.685 826.138 180.26C823.607 177.729 822.342 174.513 822.342 170.612C822.342 166.711 823.607 163.547 826.138 161.122C828.774 158.592 832.095 157.326 836.102 157.326C840.109 157.326 843.377 158.592 845.908 161.122C848.439 163.547 849.704 166.711 849.704 170.612C849.704 174.513 848.439 177.729 845.908 180.26C843.377 182.685 840.109 183.897 836.102 183.897ZM897.712 184.53C889.171 184.53 881.58 182.738 874.937 179.153C868.294 175.568 863.075 170.506 859.279 163.969C855.588 157.432 853.743 149.946 853.743 141.51C853.743 132.97 855.588 125.483 859.279 119.051C862.969 112.514 868.136 107.453 874.779 103.868C881.421 100.283 889.066 98.4904 897.712 98.4904C904.987 98.4904 911.577 99.8084 917.482 102.444C923.492 104.975 928.395 108.613 932.191 113.358C935.987 118.102 938.307 123.638 939.15 129.964L917.324 132.811C916.27 128.383 913.897 124.798 910.207 122.056C906.622 119.21 902.562 117.786 898.028 117.786C892.018 117.786 887.01 120 883.003 124.429C879.102 128.857 877.151 134.551 877.151 141.51C877.151 148.469 879.102 154.163 883.003 158.592C886.904 163.02 891.86 165.234 897.87 165.234C902.51 165.234 906.622 163.864 910.207 161.122C913.792 158.275 916.164 154.69 917.324 150.367L939.308 153.056C938.359 159.382 935.934 164.918 932.033 169.663C928.237 174.408 923.334 178.098 917.324 180.734C911.419 183.265 904.882 184.53 897.712 184.53ZM990.755 184.53C981.793 184.53 973.937 182.79 967.189 179.311C960.441 175.726 955.169 170.717 951.373 164.285C947.683 157.748 945.837 150.156 945.837 141.51C945.837 132.864 947.683 125.325 951.373 118.893C955.169 112.356 960.441 107.347 967.189 103.868C973.937 100.283 981.793 98.4904 990.755 98.4904C999.612 98.4904 1007.41 100.283 1014.16 103.868C1021.02 107.347 1026.29 112.356 1029.98 118.893C1033.78 125.325 1035.67 132.864 1035.67 141.51C1035.67 150.156 1033.78 157.748 1029.98 164.285C1026.29 170.717 1021.02 175.726 1014.16 179.311C1007.41 182.79 999.612 184.53 990.755 184.53ZM990.755 164.602C996.976 164.602 1002.09 162.44 1006.1 158.117C1010.1 153.794 1012.11 148.258 1012.11 141.51C1012.11 134.762 1010.1 129.279 1006.1 125.061C1002.09 120.738 996.976 118.577 990.755 118.577C984.429 118.577 979.262 120.738 975.255 125.061C971.249 129.279 969.245 134.762 969.245 141.51C969.245 148.258 971.249 153.794 975.255 158.117C979.262 162.44 984.429 164.602 990.755 164.602ZM1044.97 182V101.021H1068.22V113.041H1069.8C1072.12 108.613 1075.34 105.08 1079.45 102.444C1083.56 99.8084 1088.15 98.4904 1093.21 98.4904C1098.48 98.4904 1103.39 99.9139 1107.92 102.761C1112.56 105.502 1115.93 109.193 1118.04 113.832H1119.62C1122.15 109.087 1125.58 105.397 1129.9 102.761C1134.33 100.019 1139.39 98.6486 1145.09 98.6486C1150.99 98.6486 1156.26 100.072 1160.9 102.919C1165.54 105.66 1169.18 109.562 1171.82 114.623C1174.45 119.684 1175.77 125.431 1175.77 131.862V182H1152.36V135.816C1152.36 130.861 1150.94 126.801 1148.09 123.638C1145.25 120.369 1141.61 118.682 1137.18 118.577C1132.65 118.577 1128.9 120.211 1125.95 123.48C1123.1 126.643 1121.68 130.755 1121.68 135.816V182H1098.11V135.816C1098.11 130.544 1096.8 126.379 1094.16 123.322C1091.52 120.158 1087.99 118.577 1083.56 118.577C1078.92 118.577 1075.23 120.158 1072.49 123.322C1069.75 126.485 1068.38 130.65 1068.38 135.816V182H1044.97Z" fill="white"/>
<path d="M0 55C0 24.6243 24.6243 0 55 0H192C222.376 0 247 24.6243 247 55V192C247 222.376 222.376 247 192 247H55C24.6243 247 0 222.376 0 192V55Z" fill="#FF9500"/>
<path d="M187.332 102.87C190.19 83.721 175.617 73.4281 155.683 66.5564L162.155 40.6095L146.368 36.6701L140.073 61.9209C135.927 60.8842 131.661 59.9067 127.426 58.9441L133.764 33.5156L117.977 29.5762L111.505 55.5082C107.758 54.6492 79.6641 47.6146 79.6641 47.6146L75.4581 64.483C75.4581 64.483 87.2023 67.4005 86.9209 67.3265C93.3188 68.9259 95.0812 73.28 94.2814 76.5086L76.5541 147.566C76.0505 149.58 73.7846 152.424 69.312 151.313C69.6379 151.387 57.8344 148.455 57.8344 148.455L50 166.523L81.8115 174.55L75.2804 200.793L91.0529 204.732L97.5248 178.771C101.834 179.941 106.011 181.022 110.113 182.044L103.671 207.887L119.458 211.826L125.989 185.642C152.914 190.737 173.159 188.678 181.689 164.331C188.561 144.723 181.349 133.408 167.176 126.033C177.498 123.648 185.258 116.865 187.332 102.855V102.87ZM151.255 153.461C146.368 173.069 113.357 162.465 102.649 159.814L111.328 125.055C122.035 127.721 156.35 133.008 151.255 153.461ZM156.142 102.589C151.684 120.42 124.212 111.356 115.297 109.135L123.161 77.6045C132.076 79.826 160.778 83.9728 156.142 102.574V102.589Z" fill="white"/>
</svg>
