<svg xmlns="http://www.w3.org/2000/svg" viewBox="0 0 1005.04 571.95"><defs><style>.cls-1{fill:#e8413e;}</style></defs><g id="Layer_2" data-name="Layer 2"><g id="Layer_1-2" data-name="Layer 1"><path class="cls-1" d="M314.23,414c0-211.75,316.54-211.22,316.54,0S314.23,624.06,314.23,414Zm229.86,0c0-100.94-143.17-100.38-143.17,0C400.92,513.25,544.09,513.81,544.09,414Z"/><path class="cls-1" d="M315.79,113.89c0-152,227.29-151.66,227.29,0,0,129.73-166.29,147.9-214.4,56C320.55,154.39,315.79,135.71,315.79,113.89Zm165,0c0-72.48-102.8-72.08-102.8,0C378,185.19,480.84,185.59,480.84,113.89Z"/><path class="cls-1" d="M148.32,110.59l39.34-80.77h-87L34.63,164.45C13.39,189.85,0,224.21,0,267.55c0,208.18,313.64,209.29,313.64,0C313.64,159.12,229.46,106.73,148.32,110.59Zm-62.43,157c0-99.47,141.87-100,141.87,0C227.76,366.49,85.89,365.94,85.89,267.55Z"/><path class="cls-1" d="M631.19,287.38l14.89-2.26c2.5,10.17,11.13,15.95,21.48,15.95,9.17,0,17.74-4.41,17.74-12.32,0-4.76-3-7.92-9.52-9.88l-22.14-6.55c-7.62-2.2-19.11-6.79-19.11-21.91,0-16.54,13.87-25.18,31.31-25.06,17.62.18,30,9.17,33.81,25.06l-15.42,2.68c-1.84-9.05-9.76-14.11-18.57-14.34-8.57-.18-16.07,4.28-16.07,10.95,0,6.37,6.61,8.69,12.38,10.24l15.36,4.28c8.33,2.26,23,6.55,23,23.57,0,17.8-16,26.73-33.63,26.73C647.92,314.52,633.87,304.22,631.19,287.38Z"/><path class="cls-1" d="M721.55,238.69V225.53H735.9v13.16Zm0,74.05V248.45H735.9v64.29Z"/><path class="cls-1" d="M753.76,312.74l23.51-32.51-23-31.78h16.91L785.6,269l14.23-20.53h16.9l-23,31.78,23.63,32.51H800.42L785.6,291.49l-14.94,21.25Z"/><path class="cls-1" d="M852.81,259.7v25.95c0,5.12-.24,9.11,1.3,11.55,2.86,4.76,9.53,4.7,17.56,3.51v12c-12.73,2.44-25.71,1.31-30.71-7.92-3-5.54-2.44-10.95-2.44-18.33V259.7H826.85V248.45h11.67V230.59h14.29v17.86h18.86V259.7Z"/><path class="cls-1" d="M916.8,294.46l17.5-46h14.34l-30.31,78.94h-14L910,312.32l-26-63.87h14.94Z"/><path class="cls-1" d="M743.31,412.53V426H688V340.26h55.36v13.46h-41v21.13h33.87V388.3H702.29v24.23Z"/><path class="cls-1" d="M765.93,351.93V338.78h14.34v13.15Zm0,74.05V361.69h14.34V426Z"/><path class="cls-1" d="M849.38,361.69h12.56v67.39a39.72,39.72,0,0,1-.89,9c-2.92,12.44-14.23,18.22-28.75,18.22-10.72,0-20.54-5.24-25.54-14L820,435.8c2.39,4.65,7.33,6.91,12.39,6.91,8.92,0,15.41-4.71,15.23-13.87v-6.13a27.23,27.23,0,0,1-16.54,5.06c-17.8,0-29.35-14.65-29.35-33.93,0-19.53,11.67-33.93,29.88-33.93,7.32,0,13.28,2.32,17.8,6.43Zm0,32.15c0-12.56-4.7-21.07-15.66-21.07-11.54,0-16.84,9.4-16.84,21.07s5.18,21.07,16.37,21.07C844.8,414.91,849.38,406.28,849.38,393.84Z"/><path class="cls-1" d="M944.74,390.09V426H930.22V395c0-7.92-1.31-21.67-15-21.67-7.33,0-15.06,4-15.06,19.58v33H885.63V340.26h12.8v28.58c4.7-5.54,11.73-9,21-9C943.13,359.85,944.74,382.47,944.74,390.09Z"/><path class="cls-1" d="M986.17,372.94v26c0,5.12-.24,9.1,1.31,11.54,2.86,4.77,9.52,4.71,17.56,3.52v12c-12.74,2.44-25.72,1.31-30.72-7.92-3-5.53-2.44-10.95-2.44-18.33V372.94H960.22V361.69h11.66V343.84h14.29v17.85H1005v11.25Z"/><path class="cls-1" d="M574.64,160c0-26,17.06-45.64,42.1-45.64,19.22,0,32.47,10.34,37.64,26.72L640.26,145c-3.25-10.86-11-17.43-23.52-17.43-16.85,0-27.35,14.16-27.4,32.46s10.55,28.3,27.4,28.3c12.49,0,20.27-6.56,23.52-17.42l14.12,3.89c-5.17,16.38-18.42,26.72-37.64,26.72C591.7,201.47,574.64,185.94,574.64,160Z"/><path class="cls-1" d="M753.53,127.79V114.64h14.34v13.15Zm0,74.05V137.55h14.34v64.29Z"/><path class="cls-1" d="M851.86,166v35.89H837.34v-31c0-7.92-1.31-21.67-15-21.67-7.32,0-15.06,4-15.06,19.58v33H792.75V137.55h12.8v7.15c4.7-5.54,11.73-9,21-9C850.25,135.71,851.86,158.33,851.86,166Z"/><path class="cls-1" d="M667.58,170c0-43.92,65.66-43.81,65.66,0,0,37.48-48,42.73-61.94,16.19A34.53,34.53,0,0,1,667.58,170Zm50.84,0c0-25.4-36-25.26-36,0C682.4,195,718.42,195.12,718.42,170Z"/></g></g></svg>