<svg width="482" height="125" viewBox="0 0 482 125" fill="none" xmlns="http://www.w3.org/2000/svg">
<path d="M224.608 22.0561H213.483V1.60962H223.649C228.437 1.60962 230.806 3.97921 230.686 7.36862C230.596 9.14831 229.896 10.5481 228.557 11.4879C230.626 12.4777 231.655 14.3474 231.655 16.487C231.655 19.7265 228.966 22.066 224.618 22.066L224.608 22.0561ZM218.561 6.3688V9.57823H223.759C225.158 9.57823 225.628 8.90834 225.628 7.96851C225.628 7.02867 225.158 6.35879 223.759 6.35879H218.561V6.3688ZM218.561 14.0774V17.2869H224.698C226.188 17.2869 226.597 16.647 226.597 15.6772C226.597 14.7073 226.188 14.0674 224.698 14.0674H218.561V14.0774Z" fill="#FFF2DD"/>
<path d="M233.135 22.0562V0H238.042V22.0562H233.135Z" fill="#FFF2DD"/>
<path d="M247.908 6.07886C253.106 6.07886 256.264 9.78821 256.264 14.3474C256.264 18.9066 253.106 22.586 247.908 22.586C242.71 22.586 239.552 18.9066 239.552 14.3474C239.552 9.78821 242.71 6.07886 247.908 6.07886ZM247.908 10.778C245.889 10.778 244.639 12.3578 244.639 14.3374C244.639 16.3171 245.899 17.9068 247.908 17.9068C249.917 17.9068 251.176 16.2971 251.176 14.3374C251.176 12.3778 249.917 10.778 247.908 10.778Z" fill="#FFF2DD"/>
<path d="M257.144 14.3475C257.144 8.58846 261.142 6.10889 265.35 6.10889C268.968 6.10889 271.947 7.91857 272.627 11.138L268.189 12.3378C267.899 11.138 266.759 10.4381 265.36 10.4381C263.671 10.4381 262.181 11.6079 262.181 14.3475C262.181 17.087 263.671 18.2368 265.36 18.2368C266.759 18.2368 267.899 17.5369 268.189 16.3371L272.627 17.5369C271.957 20.7463 268.978 22.586 265.35 22.586C261.142 22.586 257.144 20.1064 257.144 14.3475Z" fill="#FFF2DD"/>
<path d="M278.904 16.6271V22.0562H273.996V0H278.904V12.0979H281.323C282.782 12.0979 283.282 11.8379 283.282 10.2282V6.65884H288.19V10.7181C288.19 12.3278 287.69 13.4377 286.7 14.0775C287.96 14.7774 288.689 16.0072 288.689 17.9369V22.0562H283.782V18.4968C283.782 16.887 283.312 16.6271 281.823 16.6271H278.904Z" fill="#FFF2DD"/>
<path d="M289.879 14.3475C289.879 8.58846 293.877 6.10889 298.085 6.10889C301.704 6.10889 304.682 7.91857 305.362 11.138L300.924 12.3378C300.634 11.138 299.495 10.4381 298.095 10.4381C296.406 10.4381 294.917 11.6079 294.917 14.3475C294.917 17.087 296.406 18.2368 298.095 18.2368C299.495 18.2368 300.634 17.5369 300.924 16.3371L305.362 17.5369C304.692 20.7463 301.714 22.586 298.085 22.586C293.877 22.586 289.879 20.1064 289.879 14.3475Z" fill="#FFF2DD"/>
<path d="M311.639 13.6476V22.0562H306.731V0H311.639V8.23857C312.659 7.00878 314.148 6.3389 316.197 6.3689C319.435 6.42889 322.214 8.96844 322.214 13.2377V22.0562H317.306V13.6476C317.306 11.488 316.137 10.4082 314.478 10.4082C312.818 10.4082 311.649 11.488 311.649 13.6476H311.639Z" fill="#FFF2DD"/>
<path d="M330.65 22.636C327.232 22.636 323.524 20.0364 323.524 14.3674C323.524 8.69843 327.262 6.09888 330.68 6.09888C332.719 6.09888 334.619 7.00872 335.618 8.75842V6.65878H340.526V22.0561H335.618V19.9565C334.629 21.7062 332.7 22.646 330.65 22.646V22.636ZM335.618 14.3774C335.618 11.6879 334.009 10.3481 332.23 10.3481C330.451 10.3481 328.841 11.5479 328.841 14.3774C328.841 17.2069 330.451 18.3767 332.23 18.3767C334.009 18.3767 335.618 17.057 335.618 14.3774Z" fill="#FFF2DD"/>
<path d="M342.715 0H347.623V4.90915H342.715V0ZM342.715 6.65884H347.623V22.0562H342.715V6.65884Z" fill="#FFF2DD"/>
<path d="M354.72 13.6476V22.0561H349.812V6.65883H354.72V8.23855C355.739 7.00877 357.228 6.33889 359.277 6.36889C362.516 6.42887 365.295 8.96843 365.295 13.2377V22.0561H360.387V13.6476C360.387 11.488 359.218 10.4082 357.558 10.4082C355.899 10.4082 354.73 11.488 354.73 13.6476H354.72Z" fill="#FFF2DD"/>
<path d="M391.43 3.7111L381.542 13.6018L391.43 23.4925L401.318 13.6018L391.43 3.7111Z" fill="#FFA406"/>
<path d="M424.838 15.6272V22.0561H419.76V1.60962H424.838V10.698C426.067 9.49825 427.317 8.82836 429.216 8.82836C431.115 8.82836 432.395 9.49825 433.624 10.698V1.60962H438.702V22.0561H433.624V15.6272C432.285 14.1074 431.025 13.4376 429.216 13.4376C427.407 13.4376 426.177 14.1074 424.838 15.6272Z" fill="#FFF2DD"/>
<path d="M440.731 15.5174V6.66895H445.638V15.0775C445.638 17.2371 446.838 18.3169 448.467 18.3169C450.096 18.3169 451.296 17.2371 451.296 15.0775V6.66895H456.204V22.0662H451.296V20.5165C450.306 21.7163 448.787 22.4162 446.768 22.3562C443.529 22.3262 440.721 19.7866 440.721 15.5174H440.731Z" fill="#FFF2DD"/>
<path d="M463.301 8.76847C464.29 7.01878 466.189 6.10893 468.238 6.10893C471.657 6.10893 475.395 8.70848 475.395 14.3775C475.395 20.0465 471.687 22.6461 468.268 22.6461C466.229 22.6461 464.3 21.7162 463.301 19.9565V22.0562H458.393V0H463.301V8.75848V8.76847ZM463.301 14.3775C463.301 17.067 464.91 18.3768 466.719 18.3768C468.528 18.3768 470.108 17.177 470.108 14.3775C470.108 11.578 468.498 10.3482 466.719 10.3482C464.94 10.3482 463.301 11.688 463.301 14.3775Z" fill="#FFF2DD"/>
<path d="M51.3668 33.7656C51.3668 33.7656 34.2545 55.0319 0 52.5124C0 52.5124 24.1791 61.5908 50.877 57.0516C50.877 57.0516 35.7638 78.2179 22.6698 80.7374C22.6698 80.7374 46.8288 81.7472 55.9047 75.7083C55.7148 76.0882 49.3277 88.5461 15.6129 104.423C15.6129 104.423 47.8584 103.913 69.5186 86.7864C69.5186 86.7864 61.4622 108.952 37.2732 124.07C37.2732 124.07 86.1411 127.099 105.792 91.8255C105.792 91.8255 105.792 110.462 100.754 115.501C100.754 115.501 111.869 113.542 123.204 102.874L152.281 33.8556L51.3668 33.7656ZM111.62 64.1403L95.177 80.2575L87.3405 87.9462C87.7104 85.1666 87.6604 82.2771 87.1806 79.2377C86.6708 75.8683 85.6413 72.3089 84.112 68.4796C81.2733 61.4108 77.6849 56.0817 73.067 52.3824L88.54 52.5024L123.204 52.7723L111.62 64.1403Z" fill="#FFA406"/>
<path d="M178.88 33.8555H160.448L131.371 102.873H149.993L151.472 99.324C154.431 92.1253 161.527 88.5759 169.614 88.5759C177.7 88.5759 184.897 92.1253 187.846 99.324L189.325 102.873H207.467V101.714L178.88 33.8555ZM169.614 73.5885C166.265 73.5885 163.507 74.1884 161.238 75.4682L169.614 55.0518L178.09 75.4682C175.821 74.1884 173.062 73.5885 169.614 73.5885Z" fill="#FFF2DD"/>
<path d="M207.466 101.712V102.872H207.956L207.466 101.712Z" fill="#FFF2DD"/>
<path d="M254.285 33.8538V65.1083L223.828 33.8538H207.466V102.872H224.618V57.2197L254.285 87.3944V102.872H271.437V33.8538H254.285Z" fill="#FFF2DD"/>
<path d="M291.058 99.3223L289.579 102.872H270.947L300.024 33.8538H318.456L347.533 102.872H328.901L327.422 99.3223C324.463 92.1236 317.366 88.5742 309.19 88.5742C301.014 88.5742 294.007 92.1236 291.048 99.3223H291.058ZM309.2 55.0501L300.824 75.4565C303.093 74.1767 305.851 73.5868 309.2 73.5868C312.548 73.5868 315.407 74.1767 317.676 75.4565L309.2 55.0501Z" fill="#FFF2DD"/>
<path d="M347.053 102.872V33.8538H363.415L393.872 65.1083V33.8538H411.024V102.872H393.872V87.3944L364.205 57.2197V102.872H347.053Z" fill="#FFF2DD"/>
<path d="M448.477 105.431C431.225 105.431 413.583 93.3034 413.583 68.2578C413.583 43.2122 431.035 31.5742 448.277 31.5742C458.532 31.5742 468.678 35.7135 474.985 43.5021L462.071 54.1503C458.822 50.211 453.495 47.9414 448.177 47.9414C439.601 47.9414 431.125 53.8603 431.125 68.2578C431.125 82.6553 440.091 89.5541 448.767 89.5541C455.864 89.5541 462.76 85.2148 464.04 78.1161H448.957V62.9287H481.392V72.887C481.392 94.2833 465.129 105.421 448.467 105.421L448.477 105.431Z" fill="#FFF2DD"/>
</svg>
