<svg width="126" height="32" viewBox="0 0 126 32" fill="none" xmlns="http://www.w3.org/2000/svg">
<path d="M39.887 13.4712C39.887 16.351 37.6089 18.6373 34.6511 18.6373H31.9565V23.6899H28.9253V8.30664H34.6447C37.6041 8.30664 39.887 10.5913 39.887 13.4712ZM36.8861 13.4712C36.8861 12.1304 35.9433 11.1417 34.6526 11.1417H31.958V15.8055H34.6526C35.9449 15.8055 36.8861 14.7943 36.8861 13.476V13.4712Z" fill="white"/>
<path d="M56.1645 8.30664V23.6899H53.1636V17.319H47.4682V23.6899H44.437V8.30664H47.4682V14.4151H53.1636V8.30664H56.1645Z" fill="white"/>
<path d="M70.5021 20.9254H64.3887L63.4682 23.6933H60.2041L65.5725 8.31006H69.3184L74.7091 23.6933H71.4258L70.5021 20.9254ZM69.5624 18.0904L67.4582 11.8059L65.3635 18.0872L69.5624 18.0904Z" fill="white"/>
<path d="M84.0739 18.351H81.7734V23.6899H78.7422V8.30667H84.8796C85.5488 8.30456 86.212 8.43486 86.8309 8.6901C87.4499 8.94535 88.0126 9.32052 88.4868 9.79415C88.961 10.2678 89.3374 10.8306 89.5945 11.4503C89.8515 12.07 89.9841 12.7344 89.9847 13.4056C89.9847 15.3399 88.7786 17.0742 87.0269 17.8854L90.4218 23.6867H87.1594L84.0739 18.351ZM81.7734 15.6903H84.886C86.0251 15.6903 86.9599 14.6791 86.9599 13.4056C86.9599 12.1321 86.0171 11.1417 84.886 11.1417H81.7734V15.6903Z" fill="white"/>
<path d="M94.4678 15.9994C94.4561 14.9475 94.6537 13.9038 95.049 12.9295C95.4443 11.9551 96.0294 11.0695 96.7701 10.3246C97.5108 9.57975 98.3922 8.99047 99.3627 8.59129C100.333 8.1921 101.373 7.99103 102.422 7.99981C103.472 7.99064 104.514 8.19129 105.486 8.59006C106.457 8.98883 107.34 9.57772 108.083 10.3224C108.826 11.067 109.413 11.9526 109.81 12.9273C110.208 13.902 110.408 14.9463 110.399 15.9994C110.408 17.0526 110.208 18.097 109.811 19.0718C109.413 20.0466 108.826 20.9322 108.084 21.6769C107.341 22.4216 106.458 23.0105 105.486 23.4092C104.514 23.8079 103.472 24.0084 102.422 23.999C101.374 24.0059 100.335 23.8034 99.3649 23.4036C98.3953 23.0037 97.5147 22.4143 96.7744 21.6698C96.0341 20.9253 95.449 20.0406 95.0529 19.0671C94.6569 18.0936 94.458 17.0508 94.4678 15.9994ZM107.374 15.9994C107.374 13.0332 105.205 10.9469 102.429 10.9469C99.6527 10.9469 97.475 13.0268 97.475 15.9994C97.475 18.9721 99.6447 21.0328 102.429 21.0328C105.213 21.0328 107.374 18.9465 107.374 15.9994Z" fill="white"/>
<path d="M114.407 20.1956L116.994 18.6804C117.542 20.1076 118.614 21.0307 120.52 21.0307C122.427 21.0307 122.975 20.2612 122.975 19.4052C122.975 18.2613 121.946 17.8229 119.667 17.1653C117.323 16.4838 115.04 15.4934 115.04 12.5736C115.04 9.6537 117.449 8.00098 120.08 8.00098C122.711 8.00098 124.526 9.29691 125.558 11.452L123.017 12.9255C122.468 11.7624 121.637 10.948 120.081 10.948C118.805 10.948 118.066 11.6072 118.066 12.4872C118.066 13.4327 118.658 13.9367 120.981 14.6391C123.414 15.4086 126 16.2214 126 19.3636C126 22.2435 123.7 24.0034 120.436 24.0034C117.172 24.0034 115.243 22.4883 114.41 20.2036L114.407 20.1956Z" fill="white"/>
<path d="M15.9901 7.74362L8.59557 4.38379L3.56543 5.55493V5.89572L9.91174 9.27315L15.9901 7.74362Z" fill="url(#paint0_linear_24137_288)"/>
<path d="M18.2209 18.5255L9.08266 14.3081L1.6626 16.316V16.8072L9.46873 21.1158L18.2209 18.5319V18.5255Z" fill="url(#paint1_linear_24137_288)"/>
<path d="M3.56543 5.8941L8.59557 4.71816L14.2145 3.40943V0L3.56543 2.35187V5.8941Z" fill="white"/>
<path d="M15.9905 7.74365L9.91064 9.27157L1.6626 11.3515V16.804L9.08266 14.7977L15.9905 12.929V7.74365Z" fill="white"/>
<path d="M18.2222 18.5337L9.46687 21.1176L0 23.911V32.0002L18.2222 26.0693V18.5337Z" fill="white"/>
<defs>
<linearGradient id="paint0_linear_24137_288" x1="3.56543" y1="6.82687" x2="15.9901" y2="6.82687" gradientUnits="userSpaceOnUse">
<stop offset="0.17" stop-color="white"/>
<stop offset="0.84" stop-color="white" stop-opacity="0"/>
</linearGradient>
<linearGradient id="paint1_linear_24137_288" x1="1.6626" y1="17.7143" x2="18.2209" y2="17.7143" gradientUnits="userSpaceOnUse">
<stop offset="0.17" stop-color="white"/>
<stop offset="0.84" stop-color="white" stop-opacity="0"/>
</linearGradient>
</defs>
</svg>
