<?xml version="1.0" encoding="UTF-8" standalone="no"?>
<!-- Created with Inkscape (http://www.inkscape.org/) -->

<svg
   version="1.1"
   id="svg2"
   width="680.3147"
   height="437.33334"
   viewBox="0 0 680.3147 437.33334"
   sodipodi:docname="1__premier_logo__1___1_.pdf"
   xmlns:inkscape="http://www.inkscape.org/namespaces/inkscape"
   xmlns:sodipodi="http://sodipodi.sourceforge.net/DTD/sodipodi-0.dtd"
   xmlns="http://www.w3.org/2000/svg"
   xmlns:svg="http://www.w3.org/2000/svg">
  <defs
     id="defs6">
    <clipPath
       clipPathUnits="userSpaceOnUse"
       id="clipPath16">
      <path
         d="M 0,328 H 510.236 V 0 H 0 Z"
         id="path14" />
    </clipPath>
  </defs>
  <sodipodi:namedview
     id="namedview4"
     pagecolor="#ffffff"
     bordercolor="#000000"
     borderopacity="0.25"
     inkscape:showpageshadow="2"
     inkscape:pageopacity="0.0"
     inkscape:pagecheckerboard="0"
     inkscape:deskcolor="#d1d1d1" />
  <g
     id="g8"
     inkscape:groupmode="layer"
     inkscape:label="1__premier_logo__1___1_"
     transform="matrix(1.3333333,0,0,-1.3333333,0,437.33333)">
    <g
       id="g10">
      <g
         id="g12"
         clip-path="url(#clipPath16)">
        <g
           id="g18"
           transform="translate(124.7742,129.0059)">
          <path
             d="m 0,0 h 7.684 c 0.504,0 1.028,0.101 1.57,0.3 0.546,0.199 1.03,0.506 1.455,0.917 0.423,0.411 0.777,0.927 1.056,1.541 0.277,0.611 0.414,1.328 0.414,2.157 0,0.426 -0.051,0.929 -0.157,1.515 -0.105,0.587 -0.318,1.144 -0.635,1.677 -0.32,0.536 -0.77,0.984 -1.355,1.361 -0.583,0.37 -1.366,0.559 -2.348,0.559 H 0 Z m 0,-14.261 h -5.592 v 29.24 H 7.692 c 1.492,0 2.863,-0.247 4.102,-0.739 1.236,-0.492 2.299,-1.184 3.179,-2.079 0.88,-0.892 1.567,-1.956 2.059,-3.194 0.494,-1.237 0.741,-2.59 0.741,-4.052 0,-2.215 -0.552,-4.143 -1.661,-5.794 -1.106,-1.647 -2.579,-2.835 -4.421,-3.554 2.456,-3.25 4.887,-6.521 7.281,-9.828 h -6.669 c -1.167,1.519 -2.31,3.053 -3.425,4.596 -1.112,1.543 -2.23,3.116 -3.347,4.715 H 0 Z"
             style="fill:#ffffff;fill-opacity:1;fill-rule:nonzero;stroke:none"
             id="path20" />
        </g>
        <path
           d="m 159.046,114.745 h -5.592 v 29.2 h 5.592 z"
           style="fill:#ffffff;fill-opacity:1;fill-rule:nonzero;stroke:none"
           id="path22" />
        <g
           id="g24"
           transform="translate(168.4333,118.5811)">
          <path
             d="M 0,0 3.037,4.475 C 4.498,3.462 6.012,2.59 7.569,1.86 c 1.558,-0.736 3.189,-1.1 4.893,-1.1 0.905,0 1.705,0.111 2.395,0.336 0.694,0.228 1.278,0.524 1.759,0.883 0.478,0.357 0.839,0.771 1.079,1.236 0.239,0.468 0.36,0.928 0.36,1.379 0,0.586 -0.18,1.085 -0.54,1.495 -0.36,0.418 -0.84,0.754 -1.438,1.017 -0.599,0.269 -1.306,0.495 -2.116,0.682 -0.815,0.188 -1.66,0.358 -2.536,0.521 -0.588,0.105 -1.266,0.231 -2.038,0.379 -0.774,0.147 -1.572,0.346 -2.397,0.6 -0.825,0.253 -1.636,0.586 -2.437,1 -0.798,0.411 -1.516,0.929 -2.157,1.556 -0.638,0.624 -1.152,1.368 -1.537,2.235 -0.388,0.865 -0.579,1.885 -0.579,3.056 0,1.705 0.348,3.121 1.038,4.256 0.693,1.129 1.579,2.022 2.658,2.672 1.076,0.656 2.276,1.114 3.593,1.379 1.321,0.27 2.59,0.404 3.815,0.404 1.222,0 2.317,-0.083 3.276,-0.244 0.958,-0.16 1.849,-0.394 2.673,-0.698 0.828,-0.306 1.634,-0.69 2.419,-1.155 0.785,-0.469 1.631,-1.022 2.535,-1.66 l -3.113,-4.394 c -1.388,0.957 -2.718,1.689 -3.994,2.2 -1.282,0.501 -2.623,0.755 -4.035,0.755 -0.481,0 -1.027,-0.058 -1.64,-0.178 C 8.894,20.351 8.315,20.161 7.769,19.895 7.224,19.628 6.77,19.285 6.412,18.872 6.052,18.46 5.871,17.963 5.871,17.378 c 0,-0.587 0.212,-1.083 0.639,-1.48 0.426,-0.402 0.971,-0.731 1.637,-0.998 0.666,-0.27 1.401,-0.495 2.199,-0.679 0.799,-0.188 1.568,-0.373 2.317,-0.563 0.557,-0.133 1.217,-0.264 1.976,-0.397 0.757,-0.134 1.546,-0.32 2.355,-0.557 0.814,-0.241 1.618,-0.561 2.418,-0.961 0.799,-0.4 1.512,-0.91 2.137,-1.537 0.627,-0.624 1.133,-1.398 1.516,-2.316 0.386,-0.918 0.58,-2.032 0.58,-3.338 0,-1.518 -0.267,-2.831 -0.797,-3.953 -0.536,-1.115 -1.292,-2.041 -2.277,-2.774 -0.984,-0.737 -2.157,-1.287 -3.514,-1.661 -1.359,-0.371 -2.865,-0.556 -4.515,-0.556 -1.516,0 -2.855,0.114 -4.014,0.34 C 7.369,-3.828 6.312,-3.523 5.354,-3.136 4.394,-2.746 3.488,-2.29 2.637,-1.76 1.784,-1.227 0.906,-0.638 0,0"
             style="fill:#ffffff;fill-opacity:1;fill-rule:nonzero;stroke:none"
             id="path26" />
        </g>
        <g
           id="g28"
           transform="translate(206.2234,139.0303)">
          <path
             d="m 0,0 v -7.309 h 14.137 v -5.072 H 0 v -6.87 h 15.937 v -5.034 H -5.593 V 4.956 h 21.53 V 0 Z"
             style="fill:#ffffff;fill-opacity:1;fill-rule:nonzero;stroke:none"
             id="path30" />
        </g>
        <g
           id="g32"
           transform="translate(260.3093,143.9453)">
          <path
             d="m 0,0 v -29.2 h -5.593 v 14.78 l -9.144,-10.985 -9.111,10.985 V -29.2 h -5.588 V 0 h 0.357 L -14.737,-16.855 -0.361,0 Z"
             style="fill:#ffffff;fill-opacity:1;fill-rule:nonzero;stroke:none"
             id="path34" />
        </g>
        <g
           id="g36"
           transform="translate(281.6823,139.3086)">
          <path
             d="m 0,0 c -1.328,0 -2.571,-0.272 -3.727,-0.814 -1.155,-0.55 -2.165,-1.273 -3.029,-2.177 -0.864,-0.905 -1.547,-1.964 -2.054,-3.176 -0.503,-1.213 -0.755,-2.471 -0.755,-3.776 0,-1.33 0.252,-2.598 0.755,-3.794 0.507,-1.197 1.19,-2.259 2.054,-3.175 0.864,-0.924 1.874,-1.65 3.029,-2.196 1.156,-0.546 2.399,-0.822 3.727,-0.822 1.328,0 2.57,0.276 3.727,0.822 1.157,0.546 2.166,1.272 3.028,2.196 0.866,0.916 1.55,1.978 2.056,3.175 0.503,1.196 0.756,2.464 0.756,3.794 0,1.305 -0.253,2.563 -0.756,3.776 -0.506,1.212 -1.19,2.271 -2.056,3.176 C 5.893,-2.087 4.884,-1.364 3.727,-0.814 2.57,-0.272 1.328,0 0,0 m -0.019,-25.12 c -2.079,0 -4.034,0.4 -5.872,1.197 -1.838,0.8 -3.441,1.882 -4.814,3.255 -1.371,1.375 -2.453,2.975 -3.253,4.814 -0.8,1.837 -1.201,3.809 -1.201,5.911 0,2.076 0.401,4.041 1.201,5.891 0.8,1.849 1.882,3.465 3.253,4.834 1.373,1.37 2.976,2.454 4.814,3.257 1.838,0.797 3.793,1.194 5.872,1.194 2.103,0 4.074,-0.397 5.912,-1.194 1.836,-0.803 3.442,-1.887 4.812,-3.257 1.371,-1.369 2.457,-2.985 3.257,-4.834 0.799,-1.85 1.196,-3.815 1.196,-5.891 0,-2.102 -0.397,-4.074 -1.196,-5.911 -0.8,-1.839 -1.886,-3.439 -3.257,-4.814 -1.37,-1.373 -2.976,-2.455 -4.812,-3.255 -1.838,-0.797 -3.809,-1.197 -5.912,-1.197"
             style="fill:#ffffff;fill-opacity:1;fill-rule:nonzero;stroke:none"
             id="path38" />
        </g>
        <g
           id="g40"
           transform="translate(315.6003,114.2266)">
          <path
             d="m 0,0 c -1.893,0 -3.609,0.292 -5.153,0.882 -1.545,0.583 -2.863,1.413 -3.952,2.475 -1.093,1.066 -1.94,2.354 -2.54,3.874 -0.597,1.519 -0.897,3.208 -0.897,5.073 V 29.719 H -6.95 V 12.331 c 0,-1.459 0.241,-2.671 0.718,-3.629 C -5.753,7.745 -5.16,6.985 -4.454,6.43 -3.748,5.872 -2.991,5.485 -2.177,5.272 -1.364,5.061 -0.64,4.955 0,4.955 c 0.637,0 1.363,0.106 2.177,0.317 0.811,0.213 1.57,0.6 2.276,1.158 0.706,0.555 1.3,1.315 1.776,2.272 0.48,0.958 0.719,2.17 0.719,3.629 v 17.388 h 5.593 V 12.304 C 12.541,10.439 12.25,8.75 11.663,7.231 11.076,5.711 10.238,4.423 9.146,3.357 8.054,2.295 6.735,1.465 5.193,0.882 3.647,0.292 1.916,0 0,0"
             style="fill:#ffffff;fill-opacity:1;fill-rule:nonzero;stroke:none"
             id="path42" />
        </g>
        <g
           id="g44"
           transform="translate(360.6032,114.7451)">
          <path
             d="M 0,0 -19.214,17.376 V 0 h -5.594 v 29.2 h 0.599 L -4.995,11.544 V 29.2 h 5.593 l 0,-29.2 z"
             style="fill:#ffffff;fill-opacity:1;fill-rule:nonzero;stroke:none"
             id="path46" />
        </g>
        <g
           id="g48"
           transform="translate(391.0544,139.0303)">
          <path
             d="M 0,0 H -8.347 V -24.285 H -13.94 V 0 h -8.388 V 4.956 H 0 Z"
             style="fill:#ffffff;fill-opacity:1;fill-rule:nonzero;stroke:none"
             id="path50" />
        </g>
        <g
           id="g52"
           transform="translate(213.8562,80.1318)">
          <path
             d="M 0,0 C 0,0.935 -0.128,1.77 -0.383,2.507 -0.637,3.243 -0.998,3.864 -1.465,4.375 -1.933,4.886 -2.499,5.274 -3.164,5.543 -3.829,5.812 -4.57,5.946 -5.384,5.946 H -9.003 V -5.935 h 3.619 c 0.814,0 1.555,0.135 2.22,0.404 0.665,0.268 1.231,0.655 1.699,1.161 0.467,0.506 0.828,1.129 1.082,1.866 C -0.128,-1.77 0,-0.936 0,0 m 2.112,0 c 0,-1.139 -0.18,-2.177 -0.542,-3.11 -0.359,-0.934 -0.87,-1.735 -1.528,-2.401 -0.658,-0.665 -1.447,-1.18 -2.367,-1.543 -0.921,-0.365 -1.94,-0.547 -3.059,-0.547 h -5.689 V 7.613 h 5.689 c 1.119,0 2.138,-0.182 3.059,-0.547 0.92,-0.365 1.709,-0.88 2.367,-1.551 C 0.7,4.846 1.211,4.047 1.57,3.111 1.932,2.177 2.112,1.14 2.112,0"
             style="fill:#ffffff;fill-opacity:1;fill-rule:nonzero;stroke:none"
             id="path54" />
        </g>
        <g
           id="g56"
           transform="translate(222.8699,78.1777)">
          <path
             d="M 0,0 H 5.68 L 3.292,6.19 C 3.137,6.572 2.983,7.05 2.834,7.624 2.757,7.333 2.682,7.067 2.606,6.823 2.531,6.578 2.459,6.365 2.388,6.181 Z M 9.97,-5.646 H 8.377 c -0.185,0 -0.333,0.045 -0.446,0.136 -0.114,0.093 -0.199,0.209 -0.255,0.352 L 6.254,-1.486 H -0.574 L -1.996,-5.158 C -2.046,-5.287 -2.131,-5.399 -2.251,-5.5 -2.371,-5.6 -2.52,-5.646 -2.697,-5.646 H -4.29 L 1.794,9.567 h 2.092 z"
             style="fill:#ffffff;fill-opacity:1;fill-rule:nonzero;stroke:none"
             id="path58" />
        </g>
        <g
           id="g60"
           transform="translate(238.2058,87.6748)">
          <path
             d="m 0,0 c 0.089,-0.045 0.188,-0.139 0.305,-0.28 l 8.81,-11.467 c -0.021,0.184 -0.036,0.362 -0.043,0.537 -0.006,0.173 -0.009,0.341 -0.009,0.502 V 0.07 h 1.805 V -15.144 H 9.827 c -0.164,0 -0.3,0.027 -0.41,0.084 -0.108,0.056 -0.217,0.152 -0.323,0.286 L 0.292,-3.316 c 0.014,-0.178 0.024,-0.351 0.032,-0.521 0.007,-0.171 0.011,-0.326 0.011,-0.467 v -10.84 H -1.47 V 0.07 h 1.062 C -0.225,0.07 -0.088,0.046 0,0"
             style="fill:#ffffff;fill-opacity:1;fill-rule:nonzero;stroke:none"
             id="path62" />
        </g>
        <g
           id="g64"
           transform="translate(257.3132,78.1777)">
          <path
             d="M 0,0 H 5.68 L 3.291,6.19 C 3.134,6.572 2.981,7.05 2.833,7.624 2.756,7.333 2.679,7.067 2.604,6.823 2.532,6.578 2.458,6.365 2.388,6.181 Z M 9.968,-5.646 H 8.374 c -0.182,0 -0.33,0.045 -0.444,0.136 -0.114,0.093 -0.2,0.209 -0.255,0.352 L 6.252,-1.486 H -0.573 L -1.997,-5.158 C -2.047,-5.287 -2.131,-5.399 -2.252,-5.5 -2.373,-5.6 -2.521,-5.646 -2.698,-5.646 H -4.29 L 1.792,9.567 h 2.092 z"
             style="fill:#ffffff;fill-opacity:1;fill-rule:nonzero;stroke:none"
             id="path66" />
        </g>
        <g
           id="g68"
           transform="translate(272.6677,87.6748)">
          <path
             d="m 0,0 c 0.09,-0.045 0.189,-0.139 0.304,-0.28 l 8.812,-11.467 c -0.02,0.184 -0.035,0.362 -0.042,0.537 -0.009,0.173 -0.011,0.341 -0.011,0.502 V 0.07 h 1.805 v -15.214 h -1.04 c -0.163,0 -0.301,0.027 -0.41,0.084 -0.109,0.056 -0.217,0.152 -0.322,0.286 L 0.293,-3.316 c 0.015,-0.178 0.025,-0.351 0.033,-0.521 0.005,-0.171 0.01,-0.326 0.01,-0.467 v -10.84 H -1.469 V 0.07 h 1.062 C -0.224,0.07 -0.088,0.046 0,0"
             style="fill:#ffffff;fill-opacity:1;fill-rule:nonzero;stroke:none"
             id="path70" />
        </g>
        <g
           id="g72"
           transform="translate(296.032,74.0278)">
          <path
             d="m 0,0 c 0.409,0 0.787,0.021 1.131,0.058 0.343,0.039 0.667,0.098 0.971,0.176 0.303,0.078 0.59,0.17 0.861,0.28 C 3.23,0.625 3.5,0.75 3.77,0.891 V 4.246 H 1.412 C 1.277,4.246 1.17,4.285 1.089,4.363 1.007,4.441 0.966,4.538 0.966,4.65 V 5.817 H 5.638 V -0.021 C 5.255,-0.299 4.857,-0.541 4.443,-0.743 4.03,-0.95 3.587,-1.12 3.115,-1.259 2.645,-1.399 2.142,-1.5 1.604,-1.565 1.065,-1.633 0.482,-1.667 -0.148,-1.667 c -1.106,0 -2.118,0.188 -3.038,0.567 -0.919,0.379 -1.712,0.91 -2.376,1.594 -0.667,0.682 -1.185,1.502 -1.557,2.457 -0.372,0.956 -0.557,2.007 -0.557,3.153 0,1.161 0.182,2.219 0.546,3.175 0.364,0.957 0.885,1.775 1.562,2.458 0.674,0.681 1.493,1.211 2.451,1.588 0.961,0.374 2.033,0.562 3.222,0.562 0.603,0 1.163,-0.045 1.679,-0.133 0.517,-0.088 0.996,-0.215 1.438,-0.381 0.442,-0.167 0.851,-0.369 1.226,-0.606 0.375,-0.236 0.725,-0.504 1.051,-0.801 L 4.916,11.03 C 4.796,10.84 4.64,10.744 4.448,10.744 c -0.113,0 -0.237,0.039 -0.371,0.117 -0.178,0.1 -0.375,0.219 -0.594,0.361 -0.221,0.141 -0.488,0.278 -0.802,0.409 -0.315,0.131 -0.687,0.241 -1.115,0.335 -0.428,0.091 -0.936,0.138 -1.524,0.138 -0.856,0 -1.631,-0.14 -2.324,-0.42 -0.694,-0.281 -1.285,-0.681 -1.774,-1.2 C -4.544,9.965 -4.92,9.333 -5.182,8.594 -5.443,7.855 -5.574,7.025 -5.574,6.104 -5.574,5.142 -5.438,4.283 -5.165,3.53 -4.894,2.776 -4.51,2.138 -4.014,1.612 -3.518,1.089 -2.931,0.688 -2.251,0.414 -1.572,0.137 -0.821,0 0,0"
             style="fill:#ffffff;fill-opacity:1;fill-rule:nonzero;stroke:none"
             id="path74" />
        </g>
        <g
           id="g76"
           transform="translate(139.6208,105.6875)">
          <path
             d="M 0,0 C -0.701,0 -1.337,-0.184 -1.906,-0.547 -2.476,-0.91 -2.981,-1.42 -3.419,-2.07 v -5.541 c 0.403,-0.61 0.851,-1.039 1.343,-1.285 0.492,-0.248 1.053,-0.374 1.682,-0.374 0.623,0 1.168,0.114 1.635,0.34 0.468,0.228 0.858,0.547 1.174,0.964 0.315,0.414 0.552,0.906 0.711,1.485 0.16,0.577 0.239,1.211 0.239,1.905 0,1.573 -0.29,2.727 -0.865,3.468 C 1.923,-0.37 1.09,0 0,0 M -4.428,-13.665 V 0.638 h 0.552 c 0.092,0 0.165,-0.021 0.223,-0.058 0.057,-0.041 0.088,-0.108 0.096,-0.207 l 0.094,-1.636 c 0.468,0.638 1.015,1.144 1.641,1.517 0.628,0.375 1.33,0.563 2.108,0.563 1.302,0 2.315,-0.447 3.036,-1.346 0.723,-0.9 1.083,-2.248 1.083,-4.047 0,-0.772 -0.1,-1.491 -0.303,-2.16 -0.201,-0.67 -0.497,-1.25 -0.886,-1.743 -0.389,-0.49 -0.869,-0.878 -1.44,-1.161 -0.569,-0.284 -1.224,-0.423 -1.967,-0.423 -0.724,0 -1.346,0.128 -1.87,0.392 -0.523,0.261 -0.976,0.651 -1.358,1.167 v -5.161 z"
             style="fill:#ffffff;fill-opacity:1;fill-rule:nonzero;stroke:none"
             id="path78" />
        </g>
        <g
           id="g80"
           transform="translate(155.0466,95.7617)">
          <path
             d="m 0,0 v 10.563 h 0.531 c 0.121,0 0.207,-0.025 0.26,-0.074 0.054,-0.05 0.083,-0.135 0.09,-0.255 L 0.967,8.005 c 0.34,0.854 0.792,1.527 1.358,2.011 0.568,0.486 1.264,0.727 2.091,0.727 0.319,0 0.613,-0.033 0.882,-0.1 0.268,-0.068 0.524,-0.164 0.765,-0.293 L 5.925,9.651 C 5.904,9.536 5.833,9.481 5.713,9.481 5.67,9.481 5.609,9.494 5.53,9.522 5.454,9.552 5.357,9.583 5.241,9.62 5.124,9.654 4.98,9.685 4.81,9.715 4.64,9.742 4.445,9.756 4.227,9.756 3.425,9.756 2.77,9.508 2.255,9.012 1.744,8.517 1.327,7.803 1.009,6.867 V 0 Z"
             style="fill:#ffffff;fill-opacity:1;fill-rule:nonzero;stroke:none"
             id="path82" />
        </g>
        <g
           id="g84"
           transform="translate(175.9685,105.7412)">
          <path
             d="M 0,0 C -0.545,0 -1.033,-0.084 -1.464,-0.254 -1.896,-0.424 -2.268,-0.668 -2.582,-0.987 -2.897,-1.306 -3.151,-1.688 -3.346,-2.134 -3.541,-2.579 -3.67,-3.08 -3.732,-3.631 h 6.954 c 0,0.567 -0.078,1.074 -0.235,1.522 -0.155,0.45 -0.373,0.831 -0.656,1.142 C 2.049,-0.655 1.71,-0.417 1.313,-0.249 0.918,-0.083 0.479,0 0,0 M -0.017,0.753 C 0.578,0.753 1.128,0.651 1.634,0.446 2.14,0.241 2.579,-0.059 2.951,-0.451 3.322,-0.845 3.613,-1.326 3.822,-1.9 4.03,-2.474 4.135,-3.132 4.135,-3.876 4.135,-4.032 4.111,-4.137 4.065,-4.195 4.021,-4.25 3.946,-4.278 3.848,-4.278 H -3.774 V -4.48 c 0,-0.794 0.09,-1.49 0.274,-2.091 0.186,-0.603 0.447,-1.106 0.787,-1.513 0.341,-0.408 0.75,-0.715 1.232,-0.92 0.481,-0.205 1.018,-0.307 1.613,-0.307 0.53,0 0.991,0.057 1.381,0.175 0.389,0.116 0.716,0.247 0.981,0.393 0.267,0.145 0.477,0.275 0.633,0.393 0.155,0.117 0.269,0.174 0.339,0.174 0.093,0 0.163,-0.033 0.213,-0.105 l 0.276,-0.34 C 3.785,-8.833 3.56,-9.031 3.281,-9.216 3,-9.399 2.688,-9.557 2.347,-9.69 2.003,-9.819 1.634,-9.924 1.241,-10.002 0.85,-10.08 0.454,-10.117 0.058,-10.117 c -0.722,0 -1.38,0.124 -1.975,0.376 -0.595,0.252 -1.105,0.616 -1.53,1.098 -0.426,0.482 -0.754,1.071 -0.988,1.767 -0.232,0.699 -0.349,1.497 -0.349,2.396 0,0.757 0.108,1.455 0.324,2.096 0.216,0.639 0.527,1.193 0.934,1.657 0.408,0.463 0.907,0.826 1.497,1.087 0.591,0.262 1.263,0.393 2.012,0.393"
             style="fill:#ffffff;fill-opacity:1;fill-rule:nonzero;stroke:none"
             id="path86" />
        </g>
        <g
           id="g88"
           transform="translate(191.3152,95.7617)">
          <path
             d="m 0,0 v 10.563 h 0.553 c 0.182,0 0.289,-0.088 0.318,-0.265 l 0.095,-1.53 c 0.206,0.292 0.425,0.557 0.659,0.798 0.232,0.241 0.482,0.448 0.746,0.621 0.267,0.172 0.551,0.307 0.851,0.404 0.301,0.095 0.618,0.142 0.951,0.142 0.771,0 1.387,-0.224 1.848,-0.675 C 6.479,9.61 6.79,8.985 6.954,8.184 c 0.127,0.44 0.306,0.818 0.535,1.138 0.23,0.319 0.494,0.581 0.791,0.79 0.295,0.207 0.618,0.366 0.968,0.469 0.351,0.101 0.709,0.152 1.077,0.152 0.524,0 0.993,-0.087 1.41,-0.261 0.416,-0.174 0.772,-0.43 1.066,-0.769 0.293,-0.339 0.516,-0.757 0.673,-1.253 0.155,-0.494 0.232,-1.06 0.232,-1.698 V 0 h -1.009 v 6.752 c 0,1.034 -0.222,1.821 -0.669,2.363 C 11.583,9.656 10.947,9.926 10.117,9.926 9.75,9.926 9.399,9.859 9.063,9.725 8.726,9.59 8.428,9.389 8.169,9.125 7.911,8.859 7.707,8.527 7.554,8.132 7.401,7.737 7.325,7.275 7.325,6.752 V 0 H 6.317 V 6.752 C 6.317,7.777 6.111,8.564 5.7,9.107 5.291,9.654 4.692,9.926 3.906,9.926 3.334,9.926 2.803,9.756 2.315,9.412 1.827,9.067 1.391,8.591 1.008,7.983 V 0 Z"
             style="fill:#ffffff;fill-opacity:1;fill-rule:nonzero;stroke:none"
             id="path90" />
        </g>
        <path
           d="m 217.986,95.762 h -1.01 v 10.563 h 1.01 z m 0.444,14.205 c 0,-0.129 -0.025,-0.245 -0.079,-0.356 -0.052,-0.111 -0.121,-0.208 -0.206,-0.292 -0.085,-0.085 -0.184,-0.152 -0.298,-0.2 -0.113,-0.051 -0.234,-0.075 -0.361,-0.075 -0.127,0 -0.248,0.024 -0.36,0.075 -0.114,0.048 -0.213,0.115 -0.297,0.2 -0.086,0.084 -0.153,0.181 -0.204,0.292 -0.048,0.111 -0.074,0.227 -0.074,0.356 0,0.125 0.026,0.248 0.074,0.367 0.051,0.115 0.118,0.217 0.204,0.302 0.084,0.085 0.183,0.151 0.297,0.202 0.112,0.049 0.233,0.073 0.36,0.073 0.127,0 0.248,-0.024 0.361,-0.073 0.114,-0.051 0.213,-0.117 0.298,-0.202 0.085,-0.085 0.154,-0.187 0.206,-0.302 0.054,-0.119 0.079,-0.242 0.079,-0.367"
           style="fill:#ffffff;fill-opacity:1;fill-rule:nonzero;stroke:none"
           id="path92" />
        <g
           id="g94"
           transform="translate(234.2136,105.7412)">
          <path
             d="m 0,0 c -0.545,0 -1.033,-0.084 -1.465,-0.254 -0.43,-0.17 -0.803,-0.414 -1.118,-0.733 -0.313,-0.319 -0.568,-0.701 -0.763,-1.147 -0.193,-0.445 -0.322,-0.946 -0.386,-1.497 h 6.955 c 0,0.567 -0.079,1.074 -0.234,1.522 -0.155,0.45 -0.376,0.831 -0.658,1.142 -0.282,0.312 -0.622,0.55 -1.018,0.718 C 0.918,-0.083 0.48,0 0,0 M -0.016,0.753 C 0.578,0.753 1.129,0.651 1.635,0.446 2.142,0.241 2.579,-0.059 2.951,-0.451 3.322,-0.845 3.612,-1.326 3.821,-1.9 4.03,-2.474 4.134,-3.132 4.134,-3.876 4.134,-4.032 4.111,-4.137 4.066,-4.195 4.02,-4.25 3.947,-4.278 3.848,-4.278 H -3.774 V -4.48 c 0,-0.794 0.091,-1.49 0.276,-2.091 0.184,-0.603 0.444,-1.106 0.784,-1.513 0.34,-0.408 0.751,-0.715 1.233,-0.92 0.481,-0.205 1.019,-0.307 1.613,-0.307 0.531,0 0.991,0.057 1.38,0.175 0.388,0.116 0.717,0.247 0.982,0.393 0.266,0.145 0.477,0.275 0.633,0.393 0.154,0.117 0.268,0.174 0.34,0.174 0.092,0 0.162,-0.033 0.212,-0.105 l 0.275,-0.34 C 3.783,-8.833 3.56,-9.031 3.28,-9.216 3,-9.399 2.688,-9.557 2.346,-9.69 2.003,-9.819 1.635,-9.924 1.241,-10.002 0.848,-10.08 0.455,-10.117 0.057,-10.117 c -0.72,0 -1.379,0.124 -1.974,0.376 -0.595,0.252 -1.104,0.616 -1.53,1.098 -0.426,0.482 -0.756,1.071 -0.988,1.767 -0.233,0.699 -0.35,1.497 -0.35,2.396 0,0.757 0.109,1.455 0.326,2.096 0.216,0.639 0.526,1.193 0.934,1.657 0.407,0.463 0.905,0.826 1.497,1.087 0.591,0.262 1.261,0.393 2.012,0.393"
             style="fill:#ffffff;fill-opacity:1;fill-rule:nonzero;stroke:none"
             id="path96" />
        </g>
        <g
           id="g98"
           transform="translate(249.5613,95.7617)">
          <path
             d="m 0,0 v 10.563 h 0.531 c 0.119,0 0.206,-0.025 0.259,-0.074 0.054,-0.05 0.082,-0.135 0.09,-0.255 L 0.965,8.005 c 0.34,0.854 0.793,1.527 1.358,2.011 0.567,0.486 1.264,0.727 2.093,0.727 0.318,0 0.612,-0.033 0.881,-0.1 0.27,-0.068 0.523,-0.164 0.765,-0.293 L 5.924,9.651 C 5.901,9.536 5.831,9.481 5.711,9.481 5.668,9.481 5.608,9.494 5.53,9.522 5.452,9.552 5.355,9.583 5.239,9.62 5.122,9.654 4.979,9.685 4.809,9.715 4.639,9.742 4.444,9.756 4.226,9.756 3.425,9.756 2.769,9.508 2.255,9.012 1.742,8.517 1.326,7.803 1.008,6.867 V 0 Z"
             style="fill:#ffffff;fill-opacity:1;fill-rule:nonzero;stroke:none"
             id="path100" />
        </g>
        <g
           id="g102"
           transform="translate(279.0749,95.7617)">
          <path
             d="m 0,0 v 10.563 h 0.532 c 0.119,0 0.207,-0.025 0.26,-0.074 0.052,-0.05 0.083,-0.135 0.089,-0.255 L 0.967,8.005 c 0.339,0.854 0.793,1.527 1.359,2.011 0.566,0.486 1.263,0.727 2.091,0.727 0.319,0 0.611,-0.033 0.881,-0.1 0.269,-0.068 0.523,-0.164 0.764,-0.293 L 5.925,9.651 C 5.904,9.536 5.832,9.481 5.713,9.481 5.671,9.481 5.61,9.494 5.532,9.522 5.453,9.552 5.356,9.583 5.239,9.62 5.123,9.654 4.979,9.685 4.81,9.715 4.641,9.742 4.445,9.756 4.227,9.756 3.426,9.756 2.77,9.508 2.256,9.012 1.743,8.517 1.328,7.803 1.009,6.867 V 0 Z"
             style="fill:#ffffff;fill-opacity:1;fill-rule:nonzero;stroke:none"
             id="path104" />
        </g>
        <g
           id="g106"
           transform="translate(299.9978,105.7412)">
          <path
             d="M 0,0 C -0.546,0 -1.033,-0.084 -1.465,-0.254 -1.896,-0.424 -2.268,-0.668 -2.582,-0.987 -2.896,-1.306 -3.151,-1.688 -3.346,-2.134 -3.541,-2.579 -3.67,-3.08 -3.733,-3.631 h 6.955 c 0,0.567 -0.079,1.074 -0.234,1.522 -0.155,0.45 -0.374,0.831 -0.656,1.142 -0.283,0.312 -0.623,0.55 -1.019,0.718 C 0.919,-0.083 0.479,0 0,0 M -0.017,0.753 C 0.578,0.753 1.128,0.651 1.635,0.446 2.141,0.241 2.579,-0.059 2.952,-0.451 3.323,-0.845 3.612,-1.326 3.821,-1.9 4.03,-2.474 4.136,-3.132 4.136,-3.876 4.136,-4.032 4.111,-4.137 4.066,-4.195 4.02,-4.25 3.948,-4.278 3.848,-4.278 H -3.775 V -4.48 c 0,-0.794 0.091,-1.49 0.276,-2.091 0.184,-0.603 0.446,-1.106 0.786,-1.513 0.339,-0.408 0.75,-0.715 1.231,-0.92 0.481,-0.205 1.019,-0.307 1.615,-0.307 0.529,0 0.989,0.057 1.379,0.175 0.389,0.116 0.717,0.247 0.981,0.393 0.267,0.145 0.478,0.275 0.633,0.393 0.155,0.117 0.27,0.174 0.34,0.174 0.092,0 0.163,-0.033 0.212,-0.105 l 0.276,-0.34 C 3.785,-8.833 3.559,-9.031 3.28,-9.216 3,-9.399 2.688,-9.557 2.346,-9.69 2.003,-9.819 1.635,-9.924 1.241,-10.002 0.85,-10.08 0.454,-10.117 0.059,-10.117 c -0.724,0 -1.38,0.124 -1.976,0.376 -0.594,0.252 -1.106,0.616 -1.53,1.098 -0.426,0.482 -0.755,1.071 -0.987,1.767 -0.233,0.699 -0.35,1.497 -0.35,2.396 0,0.757 0.108,1.455 0.324,2.096 0.216,0.639 0.527,1.193 0.935,1.657 0.407,0.463 0.906,0.826 1.496,1.087 0.591,0.262 1.262,0.393 2.012,0.393"
             style="fill:#ffffff;fill-opacity:1;fill-rule:nonzero;stroke:none"
             id="path108" />
        </g>
        <g
           id="g110"
           transform="translate(321.1628,105.0083)">
          <path
             d="m 0,0 c -0.049,-0.098 -0.127,-0.149 -0.233,-0.149 -0.079,0 -0.18,0.046 -0.304,0.132 -0.124,0.09 -0.285,0.188 -0.487,0.299 -0.203,0.108 -0.451,0.207 -0.745,0.299 -0.293,0.086 -0.652,0.13 -1.078,0.13 -0.38,0 -0.729,-0.054 -1.044,-0.164 C -4.207,0.438 -4.475,0.292 -4.698,0.108 -4.922,-0.074 -5.095,-0.289 -5.219,-0.533 -5.343,-0.775 -5.404,-1.032 -5.404,-1.3 c 0,-0.332 0.085,-0.607 0.255,-0.825 0.17,-0.22 0.392,-0.406 0.669,-0.563 0.275,-0.156 0.589,-0.288 0.939,-0.403 0.351,-0.111 0.709,-0.224 1.078,-0.339 0.367,-0.113 0.726,-0.239 1.077,-0.374 0.351,-0.139 0.664,-0.313 0.941,-0.516 0.274,-0.207 0.498,-0.457 0.669,-0.754 0.168,-0.299 0.253,-0.66 0.253,-1.083 0,-0.461 -0.082,-0.889 -0.248,-1.286 -0.168,-0.397 -0.408,-0.74 -0.723,-1.029 -0.316,-0.292 -0.702,-0.52 -1.163,-0.69 -0.459,-0.172 -0.984,-0.256 -1.57,-0.256 -0.746,0 -1.385,0.118 -1.922,0.356 -0.538,0.238 -1.02,0.546 -1.445,0.93 l 0.244,0.36 c 0.037,0.058 0.076,0.1 0.118,0.127 0.042,0.029 0.101,0.042 0.179,0.042 0.093,0 0.206,-0.056 0.341,-0.169 0.134,-0.112 0.31,-0.234 0.525,-0.367 0.216,-0.131 0.485,-0.253 0.808,-0.364 0.32,-0.114 0.719,-0.172 1.193,-0.172 0.446,0 0.839,0.063 1.179,0.187 0.339,0.124 0.622,0.292 0.85,0.506 0.226,0.21 0.398,0.459 0.514,0.746 0.118,0.289 0.175,0.591 0.175,0.91 0,0.352 -0.085,0.644 -0.254,0.878 -0.17,0.235 -0.393,0.434 -0.669,0.597 -0.277,0.161 -0.588,0.3 -0.939,0.414 -0.352,0.112 -0.712,0.226 -1.083,0.341 -0.373,0.111 -0.733,0.233 -1.084,0.369 -0.351,0.136 -0.662,0.306 -0.94,0.509 -0.275,0.208 -0.499,0.455 -0.668,0.751 -0.169,0.292 -0.254,0.658 -0.254,1.097 0,0.376 0.081,0.735 0.243,1.084 0.163,0.348 0.394,0.649 0.696,0.911 0.301,0.265 0.667,0.472 1.099,0.627 0.431,0.157 0.917,0.234 1.454,0.234 0.644,0 1.216,-0.092 1.715,-0.279 C -0.654,1.02 -0.195,0.735 0.224,0.35 Z"
             style="fill:#ffffff;fill-opacity:1;fill-rule:nonzero;stroke:none"
             id="path112" />
        </g>
        <g
           id="g114"
           transform="translate(336.9714,96.418)">
          <path
             d="M 0,0 C 0.629,0 1.179,0.109 1.65,0.326 2.122,0.54 2.514,0.851 2.829,1.254 3.144,1.658 3.379,2.145 3.535,2.714 3.69,3.283 3.769,3.921 3.769,4.629 3.769,5.331 3.69,5.967 3.535,6.541 3.379,7.114 3.144,7.605 2.829,8.014 2.514,8.419 2.122,8.733 1.65,8.95 1.179,9.171 0.629,9.281 0,9.281 -0.631,9.281 -1.181,9.171 -1.652,8.95 -2.123,8.733 -2.516,8.419 -2.831,8.014 -3.146,7.605 -3.382,7.114 -3.542,6.541 -3.701,5.967 -3.78,5.331 -3.78,4.629 c 0,-0.708 0.079,-1.346 0.238,-1.915 0.16,-0.569 0.396,-1.056 0.711,-1.46 C -2.516,0.851 -2.123,0.54 -1.652,0.326 -1.181,0.109 -0.631,0 0,0 M 0,10.077 C 0.757,10.077 1.435,9.948 2.033,9.69 2.63,9.431 3.135,9.065 3.545,8.59 3.956,8.116 4.27,7.545 4.485,6.877 4.701,6.207 4.81,5.458 4.81,4.629 4.81,3.801 4.701,3.055 4.485,2.389 4.27,1.724 3.956,1.154 3.545,0.68 3.135,0.207 2.63,-0.159 2.033,-0.414 1.435,-0.668 0.757,-0.794 0,-0.794 c -0.758,0 -1.436,0.126 -2.033,0.38 -0.6,0.255 -1.105,0.621 -1.519,1.094 -0.415,0.474 -0.729,1.044 -0.945,1.709 -0.217,0.666 -0.324,1.412 -0.324,2.24 0,0.829 0.107,1.578 0.324,2.248 0.216,0.668 0.53,1.239 0.945,1.713 0.414,0.475 0.919,0.841 1.519,1.1 0.597,0.258 1.275,0.387 2.033,0.387"
             style="fill:#ffffff;fill-opacity:1;fill-rule:nonzero;stroke:none"
             id="path116" />
        </g>
        <g
           id="g118"
           transform="translate(352.9284,95.7617)">
          <path
             d="m 0,0 v 10.563 h 0.531 c 0.121,0 0.207,-0.025 0.26,-0.074 0.053,-0.05 0.084,-0.135 0.091,-0.255 L 0.967,8.005 c 0.338,0.854 0.793,1.527 1.358,2.011 0.568,0.486 1.263,0.727 2.092,0.727 0.319,0 0.611,-0.033 0.881,-0.1 0.269,-0.068 0.524,-0.164 0.764,-0.293 L 5.924,9.651 C 5.903,9.536 5.833,9.481 5.712,9.481 5.67,9.481 5.608,9.494 5.532,9.522 5.454,9.552 5.356,9.583 5.239,9.62 5.123,9.654 4.979,9.685 4.81,9.715 4.639,9.742 4.444,9.756 4.226,9.756 3.426,9.756 2.77,9.508 2.256,9.012 1.743,8.517 1.327,7.803 1.009,6.867 V 0 Z"
             style="fill:#ffffff;fill-opacity:1;fill-rule:nonzero;stroke:none"
             id="path120" />
        </g>
        <g
           id="g122"
           transform="translate(372.7292,95.5898)">
          <path
             d="m 0,0 c -0.716,0 -1.271,0.2 -1.666,0.596 -0.397,0.397 -0.596,1.008 -0.596,1.837 v 7.22 h -1.517 c -0.079,0 -0.143,0.02 -0.192,0.062 -0.05,0.043 -0.075,0.104 -0.075,0.182 v 0.392 l 1.805,0.128 0.252,3.781 c 0.009,0.063 0.034,0.118 0.079,0.167 0.047,0.052 0.108,0.075 0.184,0.075 h 0.472 V 10.406 H 2.07 V 9.653 H -1.254 V 2.486 c 0,-0.292 0.038,-0.541 0.112,-0.75 0.075,-0.209 0.177,-0.38 0.309,-0.514 0.131,-0.134 0.284,-0.234 0.461,-0.297 0.177,-0.063 0.368,-0.097 0.573,-0.097 0.255,0 0.475,0.038 0.659,0.112 0.184,0.075 0.343,0.156 0.478,0.245 0.134,0.088 0.244,0.169 0.329,0.244 0.085,0.075 0.152,0.112 0.201,0.112 0.057,0 0.112,-0.036 0.171,-0.105 L 2.313,0.988 C 2.046,0.691 1.703,0.454 1.29,0.272 0.876,0.091 0.446,0 0,0"
             style="fill:#ffffff;fill-opacity:1;fill-rule:nonzero;stroke:none"
             id="path124" />
        </g>
        <path
           d="m 293.954,159.056 h -77.67 v 77.5 h 77.67 z"
           style="fill:#3675c3;fill-opacity:1;fill-rule:nonzero;stroke:none"
           id="path126" />
        <g
           id="g128"
           transform="translate(266.0866,173.7417)">
          <path
             d="m 0,0 c 0.134,-0.231 0.461,-0.431 0.866,-0.431 h 7.112 c -3.233,5.302 -9.593,16.016 -9.593,16.016 -2.04,-0.925 -3.867,-1.49 -6.36,-1.737 0,0 4.291,-7.574 7.975,-13.848 m -20.728,-0.401 c 0,0 -0.014,7.72 0.003,11.132 0.025,4.046 2.961,7.203 6.845,7.352 1.532,0.058 3.07,0.007 4.604,0.011 4.529,0.01 8.281,1.785 11.234,5.312 4.628,5.525 4.672,14.085 0.056,19.498 -3.019,3.538 -6.988,5.206 -11.449,5.346 H -27.256 V 23.566 c 0.216,0.273 0.307,0.373 0.36,0.423 3.165,3.031 6.631,4.441 10.947,4.441 h 5.454 c 2.881,0.077 4.914,2.43 4.914,4.916 0,2.774 -2.236,4.915 -4.914,4.915 h -6.749 v -4.73 c -2.297,0 -3.922,-0.439 -4.764,-0.757 v 9.59 h 11.531 c 5.051,-0.002 9.17,-4.2 9.17,-9.018 0,-5.159 -4.078,-9.325 -9.17,-9.325 -1.998,0 -4.118,-0.127 -6.115,-0.127 -6.08,-10e-4 -10.695,-4.725 -10.715,-10.978 -0.011,-4.166 0,-12.501 0,-13.317 z m 4.092,-4.158 h -14.715 l -0.024,57.226 h 21.506 c 4.992,0 9.73,-1.733 13.89,-5.812 C 7.082,43.853 9.587,38.614 9.587,33.21 9.587,23.261 2.373,18.086 1.806,17.644 1.909,17.472 10.783,2.805 15.278,-4.613 H -1.327 c -0.538,0 -0.815,0.183 -1.082,0.649 -3.293,5.714 -6.611,11.41 -9.904,17.124 -0.265,0.46 -0.537,0.664 -1.08,0.657 -2.093,-0.031 -3.24,-1.192 -3.241,-3.37 -0.004,-4.694 -0.002,-9.39 -0.002,-14.084 z"
             style="fill:#ffffff;fill-opacity:1;fill-rule:evenodd;stroke:none"
             id="path130" />
        </g>
      </g>
    </g>
  </g>
</svg>
