<svg id="Ebene_1" data-name="Ebene 1" xmlns="http://www.w3.org/2000/svg" viewBox="0 0 84.91 24.05"><defs><style>.cls-1{fill:#fff;}</style></defs><title>SEP_Logo-negative--rgb</title><path class="cls-1" d="M5.48,12.88l.85-.82a2,2,0,0,0,1.55.77c.67,0,1-.25,1-.65s-.2-.54-.7-.6l-.56-.08c-1.22-.15-1.89-.68-1.89-1.71S6.54,8,7.83,8a2.73,2.73,0,0,1,2.22.89l-.82.82a1.85,1.85,0,0,0-1.36-.61c-.59,0-.85.24-.85.59s.2.55.73.64l.58.07c1.24.18,1.84.73,1.84,1.68s-.93,1.85-2.34,1.85A2.89,2.89,0,0,1,5.48,12.88Z"/><path class="cls-1" d="M10.84,8.12h1.33l.58,2.34.44,1.94h.05l.52-1.94.66-2.34h1.26l.69,2.34.53,1.94h0l.45-1.94L18,8.12h1.3l-1.56,5.67h-1.5l-.72-2.49L15,9.75h0L14.6,11.3l-.72,2.49H12.4Z"/><path class="cls-1" d="M20.13,6.6V6.39c0-.41.24-.7.82-.7s.81.29.81.7V6.6c0,.4-.25.7-.81.7S20.13,7,20.13,6.6Zm.12,1.52h1.39v5.67H20.25Z"/><path class="cls-1" d="M22.49,12.88l.85-.82a2,2,0,0,0,1.55.77c.66,0,.94-.25.94-.65s-.19-.54-.69-.6l-.57-.08c-1.21-.15-1.89-.68-1.89-1.71S23.54,8,24.83,8a2.72,2.72,0,0,1,2.22.89l-.81.82a1.88,1.88,0,0,0-1.36-.61c-.6,0-.86.24-.86.59s.21.55.74.64l.57.07c1.24.18,1.84.73,1.84,1.68s-.92,1.85-2.34,1.85A2.87,2.87,0,0,1,22.49,12.88Z"/><path class="cls-1" d="M28,12.88l.85-.82a2,2,0,0,0,1.55.77c.67,0,.95-.25.95-.65s-.2-.54-.7-.6L30,11.5c-1.22-.15-1.89-.68-1.89-1.71S29,8,30.3,8a2.7,2.7,0,0,1,2.21.89l-.81.82a1.87,1.87,0,0,0-1.36-.61c-.6,0-.86.24-.86.59s.21.55.74.64l.58.07c1.24.18,1.83.73,1.83,1.68s-.92,1.85-2.33,1.85A2.89,2.89,0,0,1,28,12.88Z"/><path class="cls-1" d="M34.71,11c0-1.79,1-3,2.62-3s2.59,1.31,2.59,2.86v.46H36.15v.14a1.26,1.26,0,0,0,1.38,1.37A1.74,1.74,0,0,0,39,12.05l.75.83a2.82,2.82,0,0,1-2.35,1C35.71,13.92,34.71,12.76,34.71,11Zm1.44-.59v.09h2.33v-.1c0-.78-.41-1.31-1.12-1.31A1.2,1.2,0,0,0,36.15,10.36Z"/><path class="cls-1" d="M40.9,8.12h1.39v.94h0A1.59,1.59,0,0,1,43.9,8c1.43,0,2.22,1.07,2.22,3s-.79,3-2.22,3a1.61,1.61,0,0,1-1.57-1.07h0V16H40.9Zm3.77,3.33v-1a1.22,1.22,0,0,0-1.22-1.34c-.66,0-1.16.36-1.16.92v1.8c0,.59.5.92,1.16.92A1.2,1.2,0,0,0,44.67,11.45Z"/><path class="cls-1" d="M47.47,9V8.81a.87.87,0,0,1,1.74,0V9a.87.87,0,0,1-1.74,0Zm0,4.12v-.19a.87.87,0,0,1,1.74,0v.19a.87.87,0,0,1-1.74,0Z"/><path class="cls-1" d="M52.36,9.56l.19-.15a.64.64,0,0,0,.52.26c.23,0,.36-.1.36-.28s-.07-.24-.3-.27L53,9.1c-.32,0-.56-.18-.56-.5s.27-.51.62-.51a.73.73,0,0,1,.61.28l-.18.16A.54.54,0,0,0,53,8.32c-.22,0-.34.1-.34.26s.12.24.33.27l.14,0c.38.06.53.23.53.49s-.25.54-.64.54A.81.81,0,0,1,52.36,9.56Z"/><path class="cls-1" d="M54,8.13h.26l.19.75.18.76h0l.21-.76.22-.75h.24l.22.75.22.76h0L56,8.88l.19-.75h.25L56,9.86h-.33L55.38,9l-.15-.53h0L55.07,9l-.24.83h-.32Z"/><path class="cls-1" d="M56.83,7.57v0c0-.09.05-.15.17-.15a.14.14,0,0,1,.16.15v0a.14.14,0,0,1-.16.15C56.88,7.72,56.83,7.66,56.83,7.57Zm0,.56h.27V9.86h-.27Z"/><path class="cls-1" d="M57.59,9.56l.19-.15a.62.62,0,0,0,.51.26c.23,0,.37-.1.37-.28s-.08-.24-.31-.27l-.13,0c-.32,0-.56-.18-.56-.5s.26-.51.62-.51a.7.7,0,0,1,.6.28l-.18.16a.51.51,0,0,0-.44-.21c-.22,0-.34.1-.34.26s.12.24.33.27l.13,0c.39.06.53.23.53.49s-.24.54-.64.54A.78.78,0,0,1,57.59,9.56Z"/><path class="cls-1" d="M59.31,9.56l.19-.15a.6.6,0,0,0,.51.26c.23,0,.37-.1.37-.28s-.08-.24-.31-.27l-.13,0c-.32,0-.56-.18-.56-.5s.26-.51.62-.51a.71.71,0,0,1,.6.28l-.18.16A.52.52,0,0,0,60,8.32c-.23,0-.34.1-.34.26s.11.24.33.27l.13,0c.39.06.53.23.53.49s-.24.54-.64.54A.78.78,0,0,1,59.31,9.56Z"/><path class="cls-1" d="M52.4,12.92a.8.8,0,0,1,.78-.91.76.76,0,0,1,.75.85V13H52.68v.08a.49.49,0,0,0,.52.52.5.5,0,0,0,.47-.3l.19.14a.74.74,0,0,1-.68.4A.8.8,0,0,1,52.4,12.92Zm.28-.16v0h1v0a.46.46,0,0,0-.46-.51A.49.49,0,0,0,52.68,12.76Z"/><path class="cls-1" d="M54.44,13.79V12.05h.26v.28h0a.49.49,0,0,1,.49-.32c.35,0,.58.24.58.66v1.12h-.27V12.72c0-.31-.13-.47-.39-.47s-.43.11-.43.33v1.21Z"/><path class="cls-1" d="M56.76,13.79a.27.27,0,0,1-.28-.29V12.29h-.29v-.24h.17c.11,0,.15,0,.15-.15v-.33h.24v.48h.38v.24h-.38v1.26h.35v.24Z"/><path class="cls-1" d="M57.6,13.79V12.05h.26v.32h0a.51.51,0,0,1,.5-.32h.1v.27h-.15c-.29,0-.47.13-.47.29v1.18Z"/><path class="cls-1" d="M58.78,12.92a.8.8,0,0,1,.78-.91.76.76,0,0,1,.74.85V13H59.06v.08a.49.49,0,0,0,.51.52.51.51,0,0,0,.48-.3l.19.14a.74.74,0,0,1-.68.4A.8.8,0,0,1,58.78,12.92Zm.28-.16v0h1v0a.46.46,0,0,0-.46-.51A.49.49,0,0,0,59.06,12.76Z"/><path class="cls-1" d="M60.81,12.05h.27v.28h0A.53.53,0,0,1,61.6,12c.43,0,.71.36.71.91s-.28.91-.71.91a.53.53,0,0,1-.51-.33h0v1h-.27Zm1.21,1v-.3a.48.48,0,0,0-.49-.52c-.25,0-.45.15-.45.34v.64c0,.23.2.35.45.35A.47.47,0,0,0,62,13.07Z"/><path class="cls-1" d="M62.82,13.79V12.05h.27v.32h0a.51.51,0,0,1,.5-.32h.1v.27h-.15c-.29,0-.47.13-.47.29v1.18Z"/><path class="cls-1" d="M64,12.92a.8.8,0,0,1,.78-.91.76.76,0,0,1,.74.85V13H64.29v.08a.49.49,0,0,0,.51.52.51.51,0,0,0,.48-.3l.19.14a.74.74,0,0,1-.68.4A.8.8,0,0,1,64,12.92Zm.28-.16v0h1v0a.46.46,0,0,0-.46-.51A.49.49,0,0,0,64.29,12.76Z"/><path class="cls-1" d="M66,13.79V12.05h.27v.28h0a.51.51,0,0,1,.49-.32c.36,0,.58.24.58.66v1.12h-.26V12.72c0-.31-.14-.47-.4-.47s-.42.11-.42.33v1.21Z"/><path class="cls-1" d="M67.89,12.92a.8.8,0,0,1,.78-.91.76.76,0,0,1,.75.85V13H68.18v.08a.49.49,0,0,0,.51.52.51.51,0,0,0,.48-.3l.19.14a.74.74,0,0,1-.69.4A.8.8,0,0,1,67.89,12.92Zm.29-.16v0h.95v0a.46.46,0,0,0-.46-.51A.49.49,0,0,0,68.18,12.76Z"/><path class="cls-1" d="M71,13.5h0a.49.49,0,0,1-.49.33c-.35,0-.58-.25-.58-.67V12.05h.27v1.07c0,.31.14.46.39.46s.42-.1.42-.33v-1.2h.27v1.74H71Z"/><path class="cls-1" d="M71.88,13.79V12.05h.27v.32h0a.51.51,0,0,1,.5-.32h.11v.27h-.16c-.29,0-.46.13-.46.29v1.18Z"/><path class="cls-1" d="M73.06,13.49l.19-.16a.61.61,0,0,0,.51.27c.23,0,.36-.11.36-.28s-.07-.24-.3-.28l-.14,0c-.31,0-.55-.17-.55-.5s.26-.51.62-.51a.74.74,0,0,1,.6.28l-.18.16a.52.52,0,0,0-.44-.21c-.23,0-.34.1-.34.27s.11.23.33.27l.13,0c.39.06.53.22.53.49s-.24.54-.64.54A.8.8,0,0,1,73.06,13.49Z"/><path class="cls-1" d="M74.9,11.3h.27v1h0a.49.49,0,0,1,.49-.32c.35,0,.58.24.58.66v1.12H76V12.72c0-.31-.14-.47-.4-.47s-.42.11-.42.33v1.21H74.9Z"/><path class="cls-1" d="M76.83,11.5v-.05a.16.16,0,0,1,.32,0v.05a.16.16,0,0,1-.32,0Zm0,.55h.26v1.74h-.26Z"/><path class="cls-1" d="M77.74,12.05H78v.28h0a.5.5,0,0,1,.5-.32c.44,0,.71.36.71.91s-.27.91-.71.91a.51.51,0,0,1-.5-.33h0v1h-.27Zm1.21,1v-.3a.48.48,0,0,0-.49-.52c-.25,0-.45.15-.45.34v.64c0,.23.2.35.45.35A.47.47,0,0,0,79,13.07Z"/><path class="cls-1" d="M52.53,16h.27v.28h0a.5.5,0,0,1,.51-.32c.43,0,.7.35.7.9s-.27.91-.7.91a.53.53,0,0,1-.51-.32h0v.95h-.27Zm1.2,1V16.7a.48.48,0,0,0-.49-.52c-.24,0-.44.14-.44.33v.65c0,.22.2.35.44.35A.48.48,0,0,0,53.73,17Z"/><path class="cls-1" d="M54.54,17.71V16h.27v.32h0a.49.49,0,0,1,.5-.32h.1v.27h-.15c-.29,0-.47.12-.47.29v1.17Z"/><path class="cls-1" d="M55.72,16.84a.79.79,0,1,1,1.56,0,.79.79,0,1,1-1.56,0ZM57,17v-.25a.47.47,0,0,0-.5-.54c-.29,0-.49.17-.49.54V17a.47.47,0,0,0,.49.54A.48.48,0,0,0,57,17Z"/><path class="cls-1" d="M58.4,18.42c-.54,0-.77-.15-.77-.42a.33.33,0,0,1,.28-.34v0a.24.24,0,0,1-.16-.24c0-.17.13-.26.3-.3h0a.57.57,0,0,1-.32-.53.59.59,0,0,1,.65-.6.88.88,0,0,1,.33.06v0c0-.13.06-.23.2-.23h.26V16h-.33v.11a.6.6,0,0,1-.46,1h-.17c-.11,0-.22.08-.22.19s.1.13.26.13h.37c.43,0,.62.18.62.46S59,18.42,58.4,18.42Zm.22-.73h-.57a.25.25,0,0,0-.16.24c0,.15.1.27.37.27h.25c.3,0,.47-.09.47-.28S58.89,17.69,58.62,17.69Zm.14-1.11v-.09c0-.23-.15-.34-.38-.34s-.37.11-.37.34v.09c0,.23.14.34.37.34S58.76,16.81,58.76,16.58Z"/><path class="cls-1" d="M59.63,17.71V16h.27v.32h0a.48.48,0,0,1,.5-.32h.1v.27h-.16c-.29,0-.46.12-.46.29v1.17Z"/><path class="cls-1" d="M62.23,17.71a.28.28,0,0,1-.3-.28h0a.49.49,0,0,1-.5.32.51.51,0,0,1-.58-.52c0-.33.24-.51.74-.51h.34v-.17c0-.25-.13-.38-.41-.38a.49.49,0,0,0-.44.26l-.16-.15a.66.66,0,0,1,.62-.34c.41,0,.66.22.66.58v.95h.2v.24Zm-.32-.5v-.29h-.35c-.31,0-.45.09-.45.26v.07c0,.17.14.27.35.27S61.91,17.38,61.91,17.21Z"/><path class="cls-1" d="M62.83,17.71V16h.26v.28h0a.46.46,0,0,1,.46-.32.54.54,0,0,1,.54.35h0a.52.52,0,0,1,.53-.35c.35,0,.56.24.56.66v1.11h-.27V16.65c0-.31-.11-.47-.38-.47s-.4.11-.4.33v1.2h-.27V16.65c0-.31-.12-.47-.37-.47s-.42.11-.42.33v1.2Z"/></svg>