<?xml version="1.0" encoding="UTF-8"?>
<svg id="Layer_3" data-name="Layer 3" xmlns="http://www.w3.org/2000/svg" viewBox="0 0 326.77 120.63">
  <defs>
    <style>
      .cls-1 {
        fill-rule: evenodd;
      }

      .cls-1, .cls-2 {
        fill: #fff;
      }
    </style>
  </defs>
  <g>
    <path class="cls-2" d="M90.66,7.24c4.58,0,8.33,3.19,8.33,7.77s-3.75,7.71-8.33,7.71-8.33-3.13-8.33-7.71,3.8-7.77,8.33-7.77ZM83.34,29.71h14.7v59.31h-14.7V29.71Z"/>
    <path class="cls-2" d="M106.26,56.6c0-16.43,9.84-27.95,26.38-27.95,14.98,0,24.09,9.5,24.43,20.91h-13.58c-.78-4.92-4.7-9.17-10.17-9.17-7.66,0-12.3,6.26-12.3,16.38v4.7c0,10.45,4.75,16.82,12.35,16.82,6.54,0,9.73-3.97,10.4-8.5h13.58c-1.23,13.25-10.73,20.29-24.76,20.29-16.38,0-26.33-11.29-26.33-28.56v-4.92Z"/>
    <path class="cls-2" d="M172,7.24c4.58,0,8.33,3.19,8.33,7.77s-3.75,7.71-8.33,7.71-8.33-3.13-8.33-7.71,3.8-7.77,8.33-7.77ZM164.67,29.71h14.7v59.31h-14.7V29.71Z"/>
  </g>
  <path class="cls-2" d="M57.57,6.26l-18.61,65.1h-.68L19.42,6.26H0l27.64,82.74h21.09L76.19,6.26h-18.62Z"/>
  <g>
    <path class="cls-1" d="M231.44,8.67c6.34-2.93,11.05-2.73,11.21-2.73-3.32,1.14-6.94,2.91-11.03,5.51-2.28,1.4-8.5,6.04-10.09,6.98,2.18-6.38,9.32-9.49,9.92-9.76Z"/>
    <path class="cls-1" d="M220.96,13.03c-.39,2.62-2.24,7.1-3.91,9.42-.76.87-1.91,2.65-2.36,3.64,1.21-2.09,3.6-4.29,7.56-4.9,4.04-.68,4.94-1.36,5.62-1.62-2.05,2.33-3.53,4.21-5.92,5.65-2.92,1.75-5.36,1.87-8.57,5.2,0-.15.02-.49.09-1.05-.13.59-.1.93-.11,1.1,0,0-.05-.07-.05-.09-.22-.42-.28-.71-.39-1.07-.25-1.12-.43-2.74-.46-3.99-.53-3.46.64-5.87,2.54-7.89,1.92-2,3.93-3.16,5.95-4.41Z"/>
    <path class="cls-1" d="M210.59,25.6c.1,1.76-.09,3.8-.48,5.76-.27,1.35-.61,2.65-1.09,3.84-.22.53-.51.94-.92,2.04-.29.79-.53,1.67-.67,2.17.22-.61.72-1.76,1.65-2.89,1.16-1.41,2.34-2.28,4.81-3.19,1.09-.42,2.01-.72,2.63-1.04,1.78-.91,2-1.23,2.36-1.42-1.48,2.72-2.18,4.11-4.12,6.16-2.63,2.64-4.74,2.49-7.61,6.88-.03-.15-.1-.48-.15-1.04,0,.6.09.94.12,1.1,0,0-.06-.06-.07-.07-.31-.36-.43-.63-.61-.95-.5-1.03-1.03-2.58-1.34-3.79-1.29-3.26-.74-5.82.66-8.21,1.43-2.38,3.96-4.51,4.85-5.34Z"/>
    <path class="cls-1" d="M202.71,38.81c.65,1.64,1.15,3.27,1.51,5.59.25,1.61.29,2.46.36,3.31.05.71,0,2.06-.12,2.75-.21,1.23-.03,3.35-.02,3.88.02-.65.08-1.92.6-3.28.79-2.06,1.51-2.97,3.48-4.5,1.02-.74,2.1-1.52,2.63-1.97,1.5-1.25,2.02-2.1,2.3-2.4-.55,3.05-.97,5.93-2.4,8.13-1.78,3.03-4.01,3.99-5.26,8.93-.08-.13-.31-.48-.56-1.09.19.57.47,1.02.55,1.16,0,0-.08-.04-.09-.05-.41-.25-.61-.46-.88-.71-.8-.83-1.77-2.13-2.51-3.17-2.33-3.08-3.65-5.03-2.78-9.69.61-2.71,2.61-5.82,3.19-6.89Z"/>
    <path class="cls-1" d="M266.22,0c.11,2.64.84,12.2,8.41,20.6,7.37,8.18,16.49,10,19.15,10.43v4.2c-2.95.14-11.33.93-19.15,7.21-9.4,7.55-11.43,17.78-11.86,20.38h-4.2c-.16-2.59-1.15-14.24-10.83-22.99-6.45-5.83-13.55-7.48-16.73-8.01v-4.22c2.83-.14,11.66-.92,19.73-7.71,8.91-7.51,10.85-17.27,11.28-19.89h4.21Z"/>
    <path class="cls-1" d="M207.51,73.97c0,.15-.7-.78-.85-.99.39.53.78,1.03.85,1.06-.3-.11-1.61-.61-5.56-4.27-2.7-2.32-3.64-4.47-3.98-7.05-.2-3.09.05-4.12,1.37-8.63,0,0,2.44,3.1,3.94,8.1.98,2.87.55,2.96.85,4.1.25,1.06.47,2.12.83,2.99,0,0-.72-2.01.04-4.78s2.2-3.71,3.04-4.78,1.85-1.9,2.91-4.27c.21,2.06.22,3.71.19,5.39s-.63,3.99-1.48,5.49c-.23.51-1.69,3-1.97,5.22-.16,1.36-.15,1.47-.17,2.42Z"/>
    <path class="cls-1" d="M214.63,88.17c-.41-1.05-.81-2.38-.92-4.07-.19-2.91.32-3.16.39-6.32.02-1.2-.2-2.65-.69-4.19-.73-2.29-1.8-4.57-2.19-5.41-.05.62-.14,1.64-.49,2.85-.55,1.86-1.54,3.15-2.18,5.83-.07.31-.31,2.06.21,3.91.41,1.48.84,2.45,1.5,3.36-.64-.83-2.02-2.87-2.3-3.46-.62-1.35-1.21-2.18-1.38-2.43-.86-1.25-3.82-5.3-7.82-8.29.12,3.14.28,7.11,2.62,10.68,1.92,2.96,4.88,4.3,6.17,4.87,1.07.47,2.3,1.14,4.13,1.88,1.05.43,2.03.78,2.98.88,0,0-.55-.28-1.02-.68.67.47.98.6.98.6Z"/>
    <path class="cls-1" d="M216.33,80.86c1.6,1.64,4,4.23,5.34,6.3,2.13,3.37,2.31,5.63,2.69,7.04,1.11,4.15,2.64,5.64,3.6,6.98,0,0-1.36-.34-1.61-.5,0,0,1.11.47,1.68.55-.6.12-1.88.12-2.95,0-1.69-.2-3.36-.41-5.06-.77-1.94-.31-5.88-.53-9.94-4.04-4.17-3.67-5.99-9.48-6.36-10.02,4.65,1.62,9.65,5.04,11.14,6.12.31.22,1.7,1.17,3.07,2.68,1.33,1.19,2.68,2.18,3.73,2.91-2.53-1.93-3.71-4.32-4.14-5.29-.7-1.57-.9-2.89-.62-6.53.22-2.91-.39-4.57-.58-5.43Z"/>
    <path class="cls-1" d="M247.88,109.38c-1-.62-2.72-1.71-4.37-3.24-2.8-2.61-3.68-5.31-7.43-8.2-1.2-.92-3.08-2.24-5.85-3.59-1.21-.59-2.49-1.32-3.2-1.62.75.92,1.47,2.01,2.12,3.22.59,1.12,1.24,3.19,1.93,4.81.49,1.15,1.52,2.94,3.31,4.39,3.02,2.44,5.39,3.03,5.78,3.2-.31-.08-1.64-.47-2.95-.89-1.4-.45-2.71-1.13-4.06-1.69-2.28-.94-4.98-1.64-7.94-2.33-3.37-.79-6.7-1.24-9.03-1.31.68.63,3.61,4,7.69,6.39,5.54,3.24,10.09,3.28,12.51,3.09,1.6-.12,2.85-.4,4.36-.5,3.83-.27,9.38-.39,16.09.81,3.15.57,6.12,1.33,8.65,2.2,4.3,1.49,7.43,3.21,8.79,4.16l4.57-1.64c-3.98-3.33-11.89-5.2-18.61-6.14-4.97-.69-9.13-1.03-12.35-1.12Z"/>
    <path class="cls-1" d="M293.23,8.67c-6.34-2.93-11.05-2.73-11.21-2.73,3.32,1.14,6.94,2.91,11.03,5.51,2.28,1.4,8.5,6.04,10.09,6.98-2.18-6.38-9.32-9.49-9.92-9.76Z"/>
    <path class="cls-1" d="M303.71,13.03c.39,2.62,2.24,7.1,3.91,9.42.76.87,1.91,2.65,2.36,3.64-1.21-2.09-3.6-4.29-7.56-4.9-4.04-.68-4.94-1.36-5.62-1.62,2.05,2.33,3.53,4.21,5.92,5.65,2.92,1.75,5.36,1.87,8.57,5.2,0-.15-.02-.49-.09-1.05.13.59.1.93.11,1.1,0,0,.05-.07.05-.09.22-.42.28-.71.39-1.07.25-1.12.43-2.74.46-3.99.53-3.46-.64-5.87-2.54-7.89-1.92-2-3.93-3.16-5.95-4.41Z"/>
    <path class="cls-1" d="M314.08,25.6c-.1,1.76.09,3.8.48,5.76.27,1.35.61,2.65,1.09,3.84.22.53.51.94.92,2.04.29.79.53,1.67.67,2.17-.22-.61-.72-1.76-1.65-2.89-1.16-1.41-2.34-2.28-4.81-3.19-1.09-.42-2.01-.72-2.63-1.04-1.78-.91-2-1.23-2.36-1.42,1.48,2.72,2.18,4.11,4.12,6.16,2.63,2.64,4.74,2.49,7.61,6.88.03-.15.1-.48.15-1.04,0,.6-.09.94-.12,1.1,0,0,.06-.06.07-.07.31-.36.43-.63.61-.95.5-1.03,1.03-2.58,1.34-3.79,1.29-3.26.74-5.82-.66-8.21-1.43-2.38-3.96-4.51-4.85-5.34Z"/>
    <path class="cls-1" d="M321.96,38.81c-.65,1.64-1.15,3.27-1.51,5.59-.25,1.61-.29,2.46-.36,3.31-.05.71,0,2.06.12,2.75.21,1.23.03,3.35.02,3.88-.02-.65-.08-1.92-.6-3.28-.79-2.06-1.51-2.97-3.48-4.5-1.02-.74-2.1-1.52-2.63-1.97-1.5-1.25-2.02-2.1-2.3-2.4.55,3.05.97,5.93,2.4,8.13,1.78,3.03,4.01,3.99,5.26,8.93.08-.13.31-.48.56-1.09-.19.57-.47,1.02-.55,1.16,0,0,.08-.04.09-.05.41-.25.61-.46.88-.71.8-.83,1.77-2.13,2.51-3.17,2.33-3.08,3.65-5.03,2.78-9.69-.61-2.71-2.61-5.82-3.19-6.89Z"/>
    <path class="cls-1" d="M317.16,73.97c0,.15.7-.78.85-.99-.39.53-.78,1.03-.85,1.06.3-.11,1.61-.61,5.56-4.27,2.7-2.32,3.64-4.47,3.98-7.05.2-3.09-.05-4.12-1.37-8.63,0,0-2.44,3.1-3.94,8.1-.98,2.87-.55,2.96-.85,4.1-.25,1.06-.47,2.12-.83,2.99,0,0,.72-2.01-.04-4.78s-2.2-3.71-3.04-4.78-1.85-1.9-2.91-4.27c-.21,2.06-.22,3.71-.19,5.39s.63,3.99,1.48,5.49c.23.51,1.69,3,1.97,5.22.16,1.36.15,1.47.17,2.42Z"/>
    <path class="cls-1" d="M310.04,88.17c.41-1.05.81-2.38.92-4.07.19-2.91-.32-3.16-.39-6.32-.02-1.2.2-2.65.69-4.19.73-2.29,1.8-4.57,2.19-5.41.05.62.14,1.64.49,2.85.55,1.86,1.54,3.15,2.18,5.83.07.31.31,2.06-.21,3.91-.41,1.48-.84,2.45-1.5,3.36.64-.83,2.02-2.87,2.3-3.46.62-1.35,1.21-2.18,1.38-2.43.86-1.25,3.82-5.3,7.82-8.29-.12,3.14-.28,7.11-2.62,10.68-1.92,2.96-4.88,4.3-6.17,4.87-1.07.47-2.3,1.14-4.13,1.88-1.05.43-2.03.78-2.98.88,0,0,.55-.28,1.02-.68-.67.47-.98.6-.98.6Z"/>
    <path class="cls-1" d="M308.35,80.86c-1.6,1.64-4,4.23-5.34,6.3-2.13,3.37-2.31,5.63-2.69,7.04-1.11,4.15-2.64,5.64-3.6,6.98,0,0,1.36-.34,1.61-.5,0,0-1.11.47-1.68.55.6.12,1.88.12,2.95,0,1.69-.2,3.36-.41,5.06-.77,1.94-.31,5.88-.53,9.94-4.04,4.17-3.67,5.99-9.48,6.36-10.02-4.65,1.62-9.65,5.04-11.14,6.12-.31.22-1.7,1.17-3.07,2.68-1.33,1.19-2.68,2.18-3.73,2.91,2.53-1.93,3.71-4.32,4.14-5.29.7-1.57.9-2.89.62-6.53-.22-2.91.39-4.57.58-5.43Z"/>
    <path class="cls-1" d="M276.79,109.38c1-.62,2.72-1.71,4.37-3.24,2.8-2.61,3.68-5.31,7.43-8.2,1.2-.92,3.08-2.24,5.85-3.59,1.21-.59,2.49-1.32,3.2-1.62-.75.92-1.47,2.01-2.12,3.22-.59,1.12-1.24,3.19-1.93,4.81-.49,1.15-1.52,2.94-3.31,4.39-3.02,2.44-5.39,3.03-5.78,3.2.31-.08,1.64-.47,2.95-.89,1.4-.45,2.71-1.13,4.06-1.69,2.28-.94,4.98-1.64,7.94-2.33,3.37-.79,6.7-1.24,9.03-1.31-.68.63-3.61,4-7.69,6.39-5.54,3.24-10.09,3.28-12.51,3.09-1.6-.12-2.85-.4-4.36-.5-3.83-.27-9.38-.39-16.09.81-3.15.57-6.12,1.33-8.65,2.2-4.3,1.49-7.43,3.21-8.79,4.16l-4.57-1.64c3.98-3.33,11.89-5.2,18.61-6.14,4.97-.69,9.13-1.03,12.35-1.12Z"/>
    <path class="cls-1" d="M274.98,53.03c.69,1.12,2.61,4.3,2.22,9.12-.12,1.49-.66,5.14-3.5,8.48-4.17,4.89-9.77,5.17-10.85,5.21-6.01.22-9.95-3.32-10.73-4.05-1.1-1.03-3.7-3.82-4.48-8.31-.9-5.22,1.29-9.18,1.91-10.2-.76,1.06-3.28,4.86-2.93,10.23.07,1.16.53,6.19,4.73,10.27,4.75,4.62,10.64,4.48,11.6,4.44,1.37-.05,7.51-.42,11.95-6.25,3.2-4.21,3.23-8.7,3.2-9.84-.1-4.71-2.29-7.97-3.12-9.09Z"/>
    <path class="cls-1" d="M283.35,47.28c1.05,1.72,4.68,8.12,3.38,16.64-.3,1.96-1.5,8.26-6.92,13.66-6.89,6.88-15.24,7.21-16.94,7.26-2.43.06-9.74-.21-16.41-5.81-6.27-5.26-7.88-11.98-8.28-13.94-1.85-9.14,2.17-16.18,3.16-17.81-1.24,1.7-5.57,8.04-4.99,17.05.12,1.89.86,10.21,7.8,16.97,7.66,7.46,16.63,7.41,18.86,7.41,2,0,11.15-.51,18.44-8.36,6.14-6.61,6.79-14.28,6.9-16.3.47-8.87-3.75-15.08-5-16.78Z"/>
    <path class="cls-2" d="M232.56,40.73c-1.63,2.64-6.26,10.92-5.15,22.1,1.4,14.01,10.77,22.09,12.48,23.51,1.97,1.64,10.53,8.39,23.21,8.12,2.57-.06,16.47-.62,26.61-13.14,6.15-7.6,7.31-15.63,7.59-18.27,1.16-11.02-3.31-19.21-4.89-21.83,1.87,2.6,7.06,10.5,7.01,21.85-.01,3.06-.43,12.26-6.79,21.21-10.03,14.12-24,15.26-27.8,15.59-15.87,1.39-26.4-8.54-27.99-10.05-1.56-1.48-11.5-11.21-11.57-26.79-.05-11.49,5.3-19.56,7.3-22.3Z"/>
  </g>
  <g>
    <path class="cls-2" d="M.11,101.9h1.5l1.47,5.08h.05l1.45-5.08h1.44l-2.17,6.54h-1.56L.11,101.9Z"/>
    <path class="cls-2" d="M7.46,101.43c.39,0,.71.27.71.67s-.32.66-.71.66-.71-.27-.71-.66.33-.67.71-.67ZM6.83,103.35h1.26v5.08h-1.26v-5.08Z"/>
    <path class="cls-2" d="M9.18,106.1v-.46c0-1.49.92-2.37,2.25-2.37s2.24.94,2.24,2.41v.5h-3.26v.14c0,.77.44,1.26,1.08,1.26.5,0,.86-.25.96-.66h1.17c-.12.81-.78,1.62-2.14,1.62s-2.3-.87-2.3-2.43ZM12.46,105.37h0c0-.67-.4-1.16-1.01-1.16s-1.03.5-1.03,1.15h0s2.04,0,2.04,0Z"/>
    <path class="cls-2" d="M15.1,102.14h1.23v1.22h.99v.98h-.99v2.51c0,.51.22.66.74.66.11,0,.21,0,.27,0v.93c-.1.02-.32.04-.57.04-1.27,0-1.68-.43-1.68-1.47v-2.67h-.72v-.98h.74v-1.22Z"/>
    <path class="cls-2" d="M18.4,103.35h1.23v.74h.05c.16-.35.63-.82,1.48-.82,1.03,0,1.76.65,1.76,1.89v3.27h-1.26v-3c0-.78-.45-1.09-.99-1.09-.65,0-1.01.47-1.01,1.11v2.98h-1.26v-5.08Z"/>
    <path class="cls-2" d="M23.84,106.97c0-.91.63-1.49,1.81-1.49h1.24v-.46c0-.51-.31-.79-.84-.79s-.81.27-.85.68h-1.18c.04-.85.58-1.63,2.05-1.63,1.17,0,2.06.55,2.06,1.73v3.44h-1.19v-.62h-.05c-.2.37-.63.69-1.38.69-.99,0-1.67-.58-1.67-1.54ZM26.89,106.77v-.54h-.97c-.56,0-.83.27-.83.66,0,.47.4.7.82.7.54,0,.97-.33.97-.82Z"/>
    <path class="cls-2" d="M29.34,103.35h1.23v.73h.07c.14-.37.57-.81,1.33-.81s1.25.35,1.42.87h.05c.17-.43.69-.87,1.55-.87,1.05,0,1.66.68,1.66,1.69v3.47h-1.26v-3.12c0-.65-.35-.99-.89-.99s-.9.38-.9,1.03v3.08h-1.22v-3.08c0-.73-.38-1.03-.89-1.03s-.9.32-.9,1.03v3.09h-1.26v-5.08Z"/>
    <path class="cls-2" d="M39.86,108.44v-6.54h1.29v6.54h-1.29Z"/>
    <path class="cls-2" d="M42.47,103.35h1.23v.74h.05c.16-.35.63-.82,1.48-.82,1.03,0,1.76.65,1.76,1.89v3.27h-1.26v-3c0-.78-.45-1.09-.99-1.09-.65,0-1.01.47-1.01,1.11v2.98h-1.26v-5.08Z"/>
    <path class="cls-2" d="M50.04,103.26c1.21,0,1.95.61,1.95,1.55h-1.12c-.03-.32-.24-.68-.85-.68-.49,0-.81.23-.81.6,0,.5.73.59,1.31.69.93.17,1.62.49,1.62,1.43,0,1.04-.82,1.66-2.17,1.66s-2.07-.61-2.07-1.52h1.22c.05.37.38.63.92.63.59,0,.87-.28.87-.61,0-.49-.61-.57-1.26-.69-.92-.19-1.65-.53-1.65-1.47,0-1.13.97-1.6,2.04-1.6Z"/>
    <path class="cls-2" d="M53.47,102.14h1.23v1.22h.99v.98h-.99v2.51c0,.51.22.66.74.66.11,0,.21,0,.27,0v.93c-.1.02-.32.04-.57.04-1.27,0-1.68-.43-1.68-1.47v-2.67h-.72v-.98h.74v-1.22Z"/>
    <path class="cls-2" d="M57.44,101.43c.39,0,.71.27.71.67s-.32.66-.71.66-.71-.27-.71-.66.33-.67.71-.67ZM56.82,103.35h1.26v5.08h-1.26v-5.08Z"/>
    <path class="cls-2" d="M59.73,102.14h1.23v1.22h.99v.98h-.99v2.51c0,.51.22.66.74.66.11,0,.21,0,.27,0v.93c-.1.02-.32.04-.58.04-1.26,0-1.68-.43-1.68-1.47v-2.67h-.72v-.98h.74v-1.22Z"/>
    <path class="cls-2" d="M67.41,108.44h-1.23v-.74h-.06c-.16.4-.63.82-1.47.82-1.04,0-1.74-.6-1.74-1.8v-3.36h1.26v3.02c0,.84.47,1.07.97,1.07.57,0,1-.37,1-1.08v-3.01h1.27v5.08Z"/>
    <path class="cls-2" d="M69.05,102.14h1.23v1.22h.99v.98h-.99v2.51c0,.51.22.66.74.66.11,0,.21,0,.27,0v.93c-.1.02-.32.04-.58.04-1.26,0-1.68-.43-1.68-1.47v-2.67h-.72v-.98h.74v-1.22Z"/>
    <path class="cls-2" d="M72.07,106.1v-.46c0-1.49.92-2.37,2.25-2.37s2.24.94,2.24,2.41v.5h-3.26v.14c0,.77.44,1.26,1.08,1.26.5,0,.86-.25.96-.66h1.17c-.12.81-.78,1.62-2.14,1.62s-2.3-.87-2.3-2.43ZM75.35,105.37h0c0-.67-.4-1.16-1.01-1.16s-1.03.5-1.03,1.15h0s2.04,0,2.04,0Z"/>
    <path class="cls-2" d="M83.97,105.69v.37c0,1.48-.82,2.46-2.32,2.46s-2.33-.98-2.33-2.46v-.37c0-1.4.83-2.43,2.33-2.43s2.32,1.03,2.32,2.43ZM80.59,105.69v.39c0,.8.32,1.46,1.05,1.46s1.05-.66,1.05-1.46v-.39c0-.83-.32-1.45-1.05-1.45s-1.05.63-1.05,1.45Z"/>
    <path class="cls-2" d="M85.37,104.33h-.73v-.98h.73v-.51c0-1.02.53-1.44,1.71-1.44.3,0,.46.02.55.03v.9c-.07,0-.15-.02-.31-.02-.48,0-.72.15-.72.63v.4h.98v.98h-.96v4.11h-1.25v-4.11Z"/>
    <path class="cls-2" d="M91.58,105.56c0,1.23.52,1.91,1.43,1.91.8,0,1.3-.52,1.31-1.26h1.25v.12c0,1.31-1.08,2.22-2.57,2.22-1.74,0-2.74-1.15-2.74-3.01v-.75c0-1.88.99-3.03,2.74-3.03,1.49,0,2.57.93,2.57,2.3v.12h-1.25c-.01-.78-.52-1.33-1.31-1.33-.92,0-1.43.69-1.43,1.94v.76Z"/>
    <path class="cls-2" d="M100.97,108.44h-1.23v-.74h-.06c-.16.4-.63.82-1.47.82-1.04,0-1.74-.6-1.74-1.8v-3.36h1.26v3.02c0,.84.47,1.07.97,1.07.57,0,1-.37,1-1.08v-3.01h1.27v5.08Z"/>
    <path class="cls-2" d="M102.25,101.55h1.27v6.89h-1.27v-6.89Z"/>
    <path class="cls-2" d="M105.19,102.14h1.23v1.22h.99v.98h-.99v2.51c0,.51.22.66.74.66.11,0,.21,0,.27,0v.93c-.1.02-.32.04-.58.04-1.26,0-1.68-.43-1.68-1.47v-2.67h-.72v-.98h.74v-1.22Z"/>
    <path class="cls-2" d="M112.88,108.44h-1.23v-.74h-.06c-.16.4-.63.82-1.47.82-1.04,0-1.74-.6-1.74-1.8v-3.36h1.26v3.02c0,.84.47,1.07.97,1.07.57,0,1-.37,1-1.08v-3.01h1.27v5.08Z"/>
    <path class="cls-2" d="M114.12,103.35h1.26v.7h.05c.12-.33.49-.78,1.19-.78.17,0,.3.01.4.03v1.09c-.1-.03-.3-.04-.5-.04-.83,0-1.12.5-1.12,1.18v2.9h-1.29v-5.08Z"/>
    <path class="cls-2" d="M117.52,106.97c0-.91.63-1.49,1.81-1.49h1.24v-.46c0-.51-.31-.79-.84-.79s-.81.27-.85.68h-1.18c.04-.85.58-1.63,2.05-1.63,1.17,0,2.06.55,2.06,1.73v3.44h-1.19v-.62h-.05c-.2.37-.63.69-1.38.69-.99,0-1.67-.58-1.67-1.54ZM120.57,106.77v-.54h-.97c-.56,0-.83.27-.83.66,0,.47.4.7.82.7.54,0,.97-.33.97-.82Z"/>
    <path class="cls-2" d="M123.05,101.55h1.27v6.89h-1.27v-6.89Z"/>
    <path class="cls-2" d="M127.6,108.44v-6.54h1.29v6.54h-1.29Z"/>
    <path class="cls-2" d="M130.21,103.35h1.23v.74h.05c.16-.35.63-.82,1.48-.82,1.03,0,1.76.65,1.76,1.89v3.27h-1.26v-3c0-.78-.45-1.09-.99-1.09-.65,0-1.01.47-1.01,1.11v2.98h-1.26v-5.08Z"/>
    <path class="cls-2" d="M135.91,103.35h1.23v.74h.05c.16-.35.63-.82,1.48-.82,1.03,0,1.76.65,1.76,1.89v3.27h-1.26v-3c0-.78-.45-1.09-.99-1.09-.65,0-1.01.47-1.01,1.11v2.98h-1.26v-5.08Z"/>
    <path class="cls-2" d="M146.06,105.69v.37c0,1.48-.82,2.46-2.32,2.46s-2.33-.98-2.33-2.46v-.37c0-1.4.83-2.43,2.33-2.43s2.32,1.03,2.32,2.43ZM142.68,105.69v.39c0,.8.32,1.46,1.05,1.46s1.05-.66,1.05-1.46v-.39c0-.83-.32-1.45-1.05-1.45s-1.05.63-1.05,1.45Z"/>
    <path class="cls-2" d="M146.44,103.35h1.35l1.04,3.83h.05l1.15-3.83h1.3l-1.76,5.08h-1.43l-1.68-5.08Z"/>
    <path class="cls-2" d="M151.65,106.97c0-.91.63-1.49,1.81-1.49h1.24v-.46c0-.51-.31-.79-.84-.79s-.81.27-.85.68h-1.18c.04-.85.58-1.63,2.05-1.63,1.17,0,2.06.55,2.06,1.73v3.44h-1.19v-.62h-.05c-.2.37-.63.69-1.38.69-.99,0-1.67-.58-1.67-1.54ZM154.71,106.77v-.54h-.97c-.56,0-.83.27-.83.66,0,.47.4.7.82.7.54,0,.97-.33.97-.82Z"/>
    <path class="cls-2" d="M157.53,102.14h1.23v1.22h.99v.98h-.99v2.51c0,.51.22.66.74.66.11,0,.21,0,.27,0v.93c-.1.02-.32.04-.58.04-1.26,0-1.68-.43-1.68-1.47v-2.67h-.72v-.98h.74v-1.22Z"/>
    <path class="cls-2" d="M161.5,101.43c.39,0,.71.27.71.67s-.32.66-.71.66-.71-.27-.71-.66.33-.67.71-.67ZM160.88,103.35h1.26v5.08h-1.26v-5.08Z"/>
    <path class="cls-2" d="M167.88,105.69v.37c0,1.48-.82,2.46-2.32,2.46s-2.33-.98-2.33-2.46v-.37c0-1.4.83-2.43,2.33-2.43s2.32,1.03,2.32,2.43ZM164.51,105.69v.39c0,.8.32,1.46,1.05,1.46s1.05-.66,1.05-1.46v-.39c0-.83-.32-1.45-1.05-1.45s-1.05.63-1.05,1.45Z"/>
    <path class="cls-2" d="M168.93,103.35h1.23v.74h.05c.16-.35.63-.82,1.48-.82,1.03,0,1.76.65,1.76,1.89v3.27h-1.26v-3c0-.78-.45-1.09-.99-1.09-.65,0-1.01.47-1.01,1.11v2.98h-1.26v-5.08Z"/>
    <path class="cls-2" d="M.77,118.77v-6.54h1.29v6.54H.77Z"/>
    <path class="cls-2" d="M3.38,113.68h1.23v.74h.05c.16-.35.63-.82,1.48-.82,1.03,0,1.76.65,1.76,1.89v3.27h-1.26v-3c0-.78-.45-1.09-.99-1.09-.65,0-1.01.47-1.01,1.11v2.98h-1.26v-5.08Z"/>
    <path class="cls-2" d="M10.95,113.59c1.21,0,1.95.61,1.95,1.55h-1.12c-.03-.32-.24-.68-.85-.68-.49,0-.81.23-.81.6,0,.5.73.59,1.31.69.93.17,1.62.49,1.62,1.43,0,1.04-.82,1.66-2.17,1.66s-2.07-.61-2.07-1.52h1.22c.05.37.38.63.92.63.59,0,.87-.28.87-.61,0-.49-.61-.57-1.26-.69-.92-.19-1.65-.53-1.65-1.47,0-1.13.97-1.6,2.04-1.6Z"/>
    <path class="cls-2" d="M15.35,118.03h-.05v2.42h-1.27v-6.77h1.24v.76h.05c.26-.49.78-.82,1.47-.82,1.13,0,1.92.85,1.92,2.39v.44c0,1.53-.78,2.4-1.94,2.4-.68,0-1.18-.32-1.43-.8ZM17.42,116.38v-.34c0-.92-.4-1.42-1.05-1.42s-1.09.54-1.09,1.42v.34c0,.9.43,1.45,1.1,1.45.61,0,1.03-.5,1.03-1.45Z"/>
    <path class="cls-2" d="M20.44,111.76c.39,0,.71.27.71.67s-.32.66-.71.66-.71-.27-.71-.66.33-.67.71-.67ZM19.81,113.68h1.26v5.08h-1.26v-5.08Z"/>
    <path class="cls-2" d="M22.37,113.68h1.26v.7h.05c.12-.33.49-.78,1.19-.78.17,0,.3.01.4.03v1.09c-.1-.03-.3-.04-.5-.04-.83,0-1.12.5-1.12,1.18v2.9h-1.29v-5.08Z"/>
    <path class="cls-2" d="M26.84,111.76c.39,0,.71.27.71.67s-.32.66-.71.66-.71-.27-.71-.66.33-.67.71-.67ZM26.21,113.68h1.26v5.08h-1.26v-5.08Z"/>
    <path class="cls-2" d="M28.77,113.68h1.23v.74h.05c.16-.35.63-.82,1.48-.82,1.03,0,1.76.65,1.76,1.89v3.27h-1.26v-3c0-.78-.45-1.09-.99-1.09-.65,0-1.01.47-1.01,1.11v2.98h-1.26v-5.08Z"/>
    <path class="cls-2" d="M37.71,118.62v-.72h-.05c-.19.45-.72.8-1.43.8-1.15,0-1.94-.83-1.94-2.39v-.32c0-1.54.78-2.38,1.94-2.38.7,0,1.24.35,1.45.81h.05v-.75h1.25v5.02c0,1.39-1.21,1.92-2.36,1.92-1.46,0-2.14-.69-2.21-1.54h1.22c.08.36.46.62,1.01.62.68,0,1.08-.39,1.08-1.08ZM35.58,116.04v.3c0,.91.41,1.42,1.08,1.42s1.05-.51,1.05-1.42v-.3c0-.9-.42-1.41-1.05-1.41-.67,0-1.08.5-1.08,1.41Z"/>
    <path class="cls-2" d="M41.56,112.23h1.5l1.47,5.08h.05l1.45-5.08h1.44l-2.17,6.54h-1.56l-2.18-6.54Z"/>
    <path class="cls-2" d="M48.9,111.76c.39,0,.71.27.71.67s-.32.66-.71.66-.71-.27-.71-.66.33-.67.71-.67ZM48.28,113.68h1.26v5.08h-1.26v-5.08Z"/>
    <path class="cls-2" d="M50.63,116.43v-.46c0-1.49.92-2.37,2.25-2.37s2.24.94,2.24,2.41v.5h-3.26v.14c0,.77.44,1.26,1.08,1.26.5,0,.86-.25.96-.66h1.17c-.12.81-.78,1.62-2.14,1.62s-2.3-.87-2.3-2.43ZM53.9,115.7h0c0-.67-.4-1.16-1.01-1.16s-1.03.5-1.03,1.15h0s2.04,0,2.04,0Z"/>
    <path class="cls-2" d="M56.55,112.47h1.23v1.22h.99v.98h-.99v2.51c0,.51.22.66.74.66.11,0,.21,0,.27,0v.93c-.1.02-.32.04-.57.04-1.27,0-1.68-.43-1.68-1.47v-2.67h-.72v-.98h.74v-1.22Z"/>
    <path class="cls-2" d="M59.85,113.68h1.23v.74h.05c.16-.35.63-.82,1.48-.82,1.03,0,1.76.65,1.76,1.89v3.27h-1.26v-3c0-.78-.45-1.09-.99-1.09-.65,0-1.01.47-1.01,1.11v2.98h-1.26v-5.08Z"/>
    <path class="cls-2" d="M65.29,117.3c0-.91.63-1.49,1.81-1.49h1.24v-.46c0-.51-.31-.79-.84-.79s-.81.27-.85.68h-1.18c.04-.85.58-1.63,2.05-1.63,1.17,0,2.06.55,2.06,1.73v3.44h-1.19v-.62h-.05c-.2.37-.63.69-1.38.69-.99,0-1.67-.58-1.67-1.54ZM68.34,117.1v-.54h-.97c-.56,0-.83.27-.83.66,0,.47.4.7.82.7.54,0,.97-.33.97-.82Z"/>
    <path class="cls-2" d="M70.79,113.68h1.23v.73h.07c.14-.37.57-.81,1.33-.81s1.25.35,1.42.87h.05c.17-.43.69-.87,1.55-.87,1.05,0,1.66.68,1.66,1.69v3.47h-1.26v-3.12c0-.65-.35-.99-.89-.99s-.9.38-.9,1.03v3.08h-1.22v-3.08c0-.73-.38-1.03-.89-1.03s-.9.32-.9,1.03v3.09h-1.26v-5.08Z"/>
    <path class="cls-2" d="M79.01,114.73l.35-2.5h1.17l-.59,2.5h-.92Z"/>
    <path class="cls-2" d="M82.75,113.59c1.21,0,1.95.61,1.95,1.55h-1.12c-.03-.32-.24-.68-.85-.68-.49,0-.81.23-.81.6,0,.5.73.59,1.31.69.93.17,1.62.49,1.62,1.43,0,1.04-.82,1.66-2.17,1.66s-2.07-.61-2.07-1.52h1.22c.05.37.38.63.92.63.59,0,.87-.28.87-.61,0-.49-.61-.57-1.26-.69-.92-.19-1.65-.53-1.65-1.47,0-1.13.97-1.6,2.04-1.6Z"/>
    <path class="cls-2" d="M92.65,114.41c0,1.25-.81,2.17-2.22,2.17h-1.31v2.19h-1.29v-6.54h2.62c1.4,0,2.21.95,2.21,2.18ZM90.19,113.26h-1.08v2.3h.78c.9,0,1.44-.26,1.44-1.15,0-.73-.43-1.15-1.14-1.15Z"/>
    <path class="cls-2" d="M93.26,116.43v-.46c0-1.49.92-2.37,2.25-2.37s2.24.94,2.24,2.41v.5h-3.26v.14c0,.77.44,1.26,1.08,1.26.5,0,.86-.25.96-.66h1.17c-.12.81-.78,1.62-2.14,1.62s-2.3-.87-2.3-2.43ZM96.53,115.7h0c0-.67-.4-1.16-1.01-1.16s-1.03.5-1.03,1.15h0s2.04,0,2.04,0Z"/>
    <path class="cls-2" d="M103.23,116.02v.37c0,1.48-.82,2.46-2.32,2.46s-2.33-.98-2.33-2.46v-.37c0-1.4.83-2.43,2.33-2.43s2.32,1.03,2.32,2.43ZM99.85,116.02v.39c0,.8.32,1.46,1.05,1.46s1.05-.66,1.05-1.46v-.39c0-.83-.32-1.45-1.05-1.45s-1.05.63-1.05,1.45Z"/>
    <path class="cls-2" d="M105.6,118.03h-.05v2.42h-1.27v-6.77h1.24v.76h.05c.26-.49.78-.82,1.47-.82,1.13,0,1.92.85,1.92,2.39v.44c0,1.53-.78,2.4-1.94,2.4-.68,0-1.18-.32-1.43-.8ZM107.67,116.38v-.34c0-.92-.4-1.42-1.05-1.42s-1.09.54-1.09,1.42v.34c0,.9.43,1.45,1.1,1.45.61,0,1.04-.5,1.04-1.45Z"/>
    <path class="cls-2" d="M110.05,111.88h1.27v6.89h-1.27v-6.89Z"/>
    <path class="cls-2" d="M112.39,116.43v-.46c0-1.49.92-2.37,2.25-2.37s2.24.94,2.24,2.41v.5h-3.26v.14c0,.77.44,1.26,1.08,1.26.5,0,.86-.25.96-.66h1.17c-.12.81-.78,1.62-2.14,1.62s-2.3-.87-2.3-2.43ZM115.66,115.7h0c0-.67-.4-1.16-1.01-1.16s-1.03.5-1.03,1.15h0s2.04,0,2.04,0Z"/>
    <path class="cls-2" d="M120.24,112.47h1.23v1.22h.99v.98h-.99v2.51c0,.51.22.66.74.66.11,0,.21,0,.27,0v.93c-.1.02-.32.04-.58.04-1.26,0-1.68-.43-1.68-1.47v-2.67h-.72v-.98h.74v-1.22Z"/>
    <path class="cls-2" d="M123.55,111.88h1.26v2.54h.05c.16-.35.61-.82,1.46-.82,1.03,0,1.76.65,1.76,1.89v3.27h-1.26v-3c0-.78-.45-1.09-1-1.09-.65,0-1.01.47-1.01,1.11v2.98h-1.26v-6.89Z"/>
    <path class="cls-2" d="M129.26,113.68h1.26v.7h.05c.12-.33.49-.78,1.19-.78.17,0,.3.01.4.03v1.09c-.1-.03-.3-.04-.5-.04-.83,0-1.12.5-1.12,1.18v2.9h-1.29v-5.08Z"/>
    <path class="cls-2" d="M137.37,116.02v.37c0,1.48-.82,2.46-2.32,2.46s-2.33-.98-2.33-2.46v-.37c0-1.4.83-2.43,2.33-2.43s2.32,1.03,2.32,2.43ZM133.99,116.02v.39c0,.8.32,1.46,1.05,1.46s1.05-.66,1.05-1.46v-.39c0-.83-.32-1.45-1.05-1.45s-1.05.63-1.05,1.45Z"/>
    <path class="cls-2" d="M142.85,118.77h-1.23v-.74h-.06c-.16.4-.63.82-1.47.82-1.04,0-1.74-.6-1.74-1.8v-3.36h1.26v3.02c0,.84.47,1.07.97,1.07.57,0,1-.37,1-1.08v-3.01h1.27v5.08Z"/>
    <path class="cls-2" d="M147.33,118.62v-.72h-.05c-.19.45-.72.8-1.43.8-1.15,0-1.94-.83-1.94-2.39v-.32c0-1.54.78-2.38,1.94-2.38.7,0,1.24.35,1.45.81h.05v-.75h1.25v5.02c0,1.39-1.21,1.92-2.36,1.92-1.46,0-2.14-.69-2.21-1.54h1.22c.08.36.46.62,1.01.62.68,0,1.08-.39,1.08-1.08ZM145.19,116.04v.3c0,.91.41,1.42,1.08,1.42s1.05-.51,1.05-1.42v-.3c0-.9-.42-1.41-1.05-1.41-.67,0-1.08.5-1.08,1.41Z"/>
    <path class="cls-2" d="M149.85,111.88h1.26v2.54h.05c.16-.35.61-.82,1.46-.82,1.02,0,1.76.65,1.76,1.89v3.27h-1.26v-3c0-.78-.45-1.09-1-1.09-.65,0-1.01.47-1.01,1.11v2.98h-1.26v-6.89Z"/>
    <path class="cls-2" d="M158.6,115.89c0,1.23.52,1.91,1.43,1.91.8,0,1.3-.52,1.31-1.26h1.25v.12c0,1.31-1.08,2.22-2.57,2.22-1.74,0-2.74-1.15-2.74-3.01v-.75c0-1.88.99-3.03,2.74-3.03,1.49,0,2.57.93,2.57,2.3v.12h-1.25c-.01-.78-.52-1.33-1.31-1.33-.92,0-1.43.69-1.43,1.94v.76Z"/>
    <path class="cls-2" d="M167.99,118.77h-1.23v-.74h-.06c-.16.4-.63.82-1.47.82-1.04,0-1.74-.6-1.74-1.8v-3.36h1.26v3.02c0,.84.47,1.07.97,1.07.57,0,1-.37,1-1.08v-3.01h1.27v5.08Z"/>
    <path class="cls-2" d="M169.27,111.88h1.27v6.89h-1.27v-6.89Z"/>
    <path class="cls-2" d="M172.22,112.47h1.23v1.22h.99v.98h-.99v2.51c0,.51.22.66.74.66.11,0,.21,0,.27,0v.93c-.1.02-.32.04-.57.04-1.27,0-1.68-.43-1.68-1.47v-2.67h-.72v-.98h.74v-1.22Z"/>
    <path class="cls-2" d="M179.9,118.77h-1.23v-.74h-.06c-.16.4-.63.82-1.47.82-1.04,0-1.74-.6-1.74-1.8v-3.36h1.26v3.02c0,.84.47,1.07.97,1.07.57,0,1-.37,1-1.08v-3.01h1.27v5.08Z"/>
    <path class="cls-2" d="M181.15,113.68h1.26v.7h.05c.12-.33.49-.78,1.19-.78.17,0,.3.01.4.03v1.09c-.1-.03-.3-.04-.5-.04-.83,0-1.12.5-1.12,1.18v2.9h-1.29v-5.08Z"/>
    <path class="cls-2" d="M184.6,116.43v-.46c0-1.49.92-2.37,2.25-2.37s2.24.94,2.24,2.41v.5h-3.26v.14c0,.77.44,1.26,1.08,1.26.5,0,.86-.25.96-.66h1.17c-.12.81-.78,1.62-2.14,1.62s-2.3-.87-2.3-2.43ZM187.87,115.7h0c0-.67-.4-1.16-1.01-1.16s-1.03.5-1.03,1.15h0s2.04,0,2.04,0Z"/>
  </g>
</svg>